<svg width="289" height="26" viewBox="0 0 289 26" fill="none" xmlns="http://www.w3.org/2000/svg">
<path fill-rule="evenodd" clip-rule="evenodd" d="M109.173 0H112.365V20.384H109.397V18.844C108.389 20.132 106.933 20.776 105.029 20.776C102.873 20.776 101.193 20.02 99.9886 18.508C98.8686 17.108 98.3086 15.288 98.3086 13.076C98.3086 10.948 98.8406 9.184 99.9606 7.784C101.137 6.272 102.789 5.516 104.861 5.516C106.541 5.516 107.969 6.3 109.173 7.896V0ZM105.617 8.092C104.161 8.092 103.125 8.568 102.453 9.52C101.865 10.332 101.585 11.508 101.585 13.076C101.585 14.644 101.837 15.848 102.397 16.688C103.041 17.696 104.077 18.2 105.505 18.2C106.737 18.2 107.717 17.696 108.389 16.716C108.977 15.82 109.285 14.644 109.285 13.244V13.02C109.285 11.48 108.893 10.248 108.165 9.352C107.493 8.512 106.625 8.092 105.617 8.092Z" fill="url(#paint0_radial_2020_72620)"/>
<path fill-rule="evenodd" clip-rule="evenodd" d="M128.228 0H125.036V20.384H128.004V18.844C129.012 20.132 130.468 20.776 132.372 20.776C134.5 20.776 136.18 20.02 137.412 18.508C138.532 17.108 139.092 15.288 139.092 13.076C139.092 10.948 138.532 9.184 137.44 7.784C136.236 6.272 134.612 5.516 132.54 5.516C130.86 5.516 129.404 6.3 128.228 7.896V0ZM129.236 9.352C129.908 8.512 130.748 8.092 131.784 8.092C133.212 8.092 134.276 8.568 134.948 9.52C135.508 10.332 135.816 11.508 135.816 13.076C135.816 14.644 135.536 15.848 135.004 16.688C134.332 17.696 133.296 18.2 131.896 18.2C130.636 18.2 129.684 17.696 129.012 16.716C128.396 15.82 128.116 14.644 128.116 13.244V13.02C128.116 11.48 128.48 10.248 129.236 9.352Z" fill="url(#paint1_radial_2020_72620)"/>
<path d="M253.49 0H250.298V20.384H253.49V12.292C253.49 11.06 253.77 10.08 254.358 9.296C254.918 8.512 255.702 8.12 256.71 8.12C257.802 8.12 258.614 8.456 259.174 9.156C259.65 9.8 259.902 10.752 259.902 11.984V20.384H263.094V11.424C263.094 9.492 262.674 8.036 261.862 7.056C260.994 6.02 259.678 5.516 257.914 5.516C256.99 5.516 256.178 5.684 255.478 6.048C254.694 6.44 254.022 7.028 253.49 7.84V0Z" fill="url(#paint2_radial_2020_72620)"/>
<path d="M278.862 0H275.978V11.2H278.442V4.48H278.554L281.382 11.2H283.258L286.114 4.48H286.198V11.2H288.662V0H285.778L282.39 7.84H282.278L278.862 0Z" fill="url(#paint3_radial_2020_72620)"/>
<path d="M275.082 0H265.338V2.24H268.978V11.2H271.47V2.24H275.082V0Z" fill="url(#paint4_radial_2020_72620)"/>
<path d="M241.099 5.51562C242.975 5.51562 244.459 5.93562 245.579 6.77562C246.727 7.67162 247.455 9.01562 247.735 10.8356H244.571C244.375 9.91162 243.983 9.23962 243.423 8.79162C242.835 8.34363 242.051 8.11963 241.099 8.11963C239.923 8.11963 238.999 8.53962 238.327 9.43562C237.655 10.3036 237.319 11.5356 237.319 13.1036C237.319 14.6996 237.627 15.9596 238.299 16.8556C238.915 17.7236 239.839 18.1716 241.071 18.1716C243.199 18.1716 244.375 17.1076 244.627 15.0076H247.791C247.455 16.9676 246.699 18.4236 245.551 19.3756C244.431 20.2996 242.919 20.7756 241.043 20.7756C238.803 20.7756 237.067 20.0476 235.835 18.5916C234.631 17.1916 234.043 15.3716 234.043 13.1316C234.043 10.9476 234.631 9.15562 235.807 7.78362C237.067 6.27163 238.831 5.51562 241.099 5.51562Z" fill="url(#paint5_radial_2020_72620)"/>
<path fill-rule="evenodd" clip-rule="evenodd" d="M230.336 7.92362C229.076 6.29962 227.256 5.51562 224.876 5.51562C222.72 5.51562 221.012 6.24363 219.78 7.72762C218.492 9.18363 217.876 10.9756 217.876 13.1316C217.876 15.5396 218.548 17.4156 219.892 18.7876C221.152 20.1036 222.86 20.7756 225.016 20.7756C226.948 20.7756 228.544 20.2156 229.832 19.1236C230.84 18.2276 231.512 17.0796 231.848 15.7356H228.656C228.264 16.5476 227.844 17.1356 227.368 17.4996C226.752 17.9476 225.968 18.1716 224.988 18.1716C223.84 18.1716 222.944 17.8076 222.328 17.1076C221.712 16.4076 221.348 15.3716 221.236 14.0276H232.072C232.072 11.4236 231.484 9.37962 230.336 7.92362ZM222.468 9.01562C223.084 8.39962 223.896 8.11963 224.96 8.11963C227.2 8.11963 228.46 9.26763 228.74 11.6196H221.292C221.488 10.4716 221.88 9.60363 222.468 9.01562Z" fill="url(#paint6_radial_2020_72620)"/>
<path d="M200.229 0.391602H216.609V3.1916H210.057V20.3836H206.781V3.1916H200.229V0.391602Z" fill="url(#paint7_radial_2020_72620)"/>
<path d="M198.397 11.8159H184.257V14.4479H198.397V11.8159Z" fill="url(#paint8_radial_2020_72620)"/>
<path d="M140.34 5.90771H143.812L147.648 16.2117L151.316 5.90771H154.788L146.948 25.9277H143.532L146.08 20.0477L140.34 5.90771Z" fill="url(#paint9_radial_2020_72620)"/>
<path fill-rule="evenodd" clip-rule="evenodd" d="M94.6016 7.92362C93.3416 6.29962 91.5216 5.51562 89.1416 5.51562C86.9856 5.51562 85.2776 6.24363 84.0456 7.72762C82.7576 9.18363 82.1416 10.9756 82.1416 13.1316C82.1416 15.5396 82.8136 17.4156 84.1576 18.7876C85.4176 20.1036 87.1256 20.7756 89.2816 20.7756C91.2136 20.7756 92.8096 20.2156 94.0976 19.1236C95.1056 18.2276 95.7776 17.0796 96.1136 15.7356H92.9216C92.5296 16.5476 92.1096 17.1356 91.6336 17.4996C91.0176 17.9476 90.2336 18.1716 89.2536 18.1716C88.1056 18.1716 87.2096 17.8076 86.5936 17.1076C85.9776 16.4076 85.6136 15.3716 85.5016 14.0276H96.3376C96.3376 11.4236 95.7496 9.37962 94.6016 7.92362ZM86.7336 9.01562C87.3496 8.39962 88.1616 8.11963 89.2256 8.11963C91.4656 8.11963 92.7256 9.26763 93.0056 11.6196H85.5576C85.7536 10.4716 86.1456 9.60363 86.7336 9.01562Z" fill="url(#paint10_radial_2020_72620)"/>
<path d="M79.3408 5.51562C80.0408 5.51562 80.6568 5.62763 81.1608 5.87963V9.07162C80.4328 8.84762 79.7608 8.76362 79.0888 8.76362C78.2488 8.76362 77.4928 9.07162 76.8208 9.74362C76.0368 10.4996 75.6728 11.4796 75.6728 12.7116V20.3836H72.5088V5.90762H75.6728V7.97962C76.0648 7.25162 76.5128 6.69162 77.0448 6.29962C77.6888 5.76762 78.4448 5.51562 79.3408 5.51562Z" fill="url(#paint11_radial_2020_72620)"/>
<path fill-rule="evenodd" clip-rule="evenodd" d="M68.2422 7.92362C66.9822 6.29962 65.1622 5.51562 62.7822 5.51562C60.6262 5.51562 58.9182 6.24363 57.6862 7.72762C56.3982 9.18363 55.7822 10.9756 55.7822 13.1316C55.7822 15.5396 56.4542 17.4156 57.7982 18.7876C59.0582 20.1036 60.7662 20.7756 62.9222 20.7756C64.8542 20.7756 66.4502 20.2156 67.7382 19.1236C68.7462 18.2276 69.4182 17.0796 69.7542 15.7356H66.5622C66.1702 16.5476 65.7502 17.1356 65.2742 17.4996C64.6582 17.9476 63.8742 18.1716 62.8942 18.1716C61.7462 18.1716 60.8502 17.8076 60.2342 17.1076C59.6182 16.4076 59.2542 15.3716 59.1422 14.0276H69.9782C69.9782 11.4236 69.3902 9.37962 68.2422 7.92362ZM60.3742 9.01562C60.9902 8.39962 61.8022 8.11963 62.8662 8.11963C65.1062 8.11963 66.3662 9.26763 66.6462 11.6196H59.1982C59.3942 10.4716 59.7862 9.60363 60.3742 9.01562Z" fill="url(#paint12_radial_2020_72620)"/>
<path d="M33.3164 5.90771H36.8444L39.7284 16.6037L42.5844 5.90771H45.5244L48.3804 16.6037L51.2644 5.90771H54.7924L49.9204 20.3837H46.9524L44.0684 9.79972L41.1564 20.3837H38.1884L33.3164 5.90771Z" fill="url(#paint13_radial_2020_72620)"/>
<path fill-rule="evenodd" clip-rule="evenodd" d="M30.0798 7.67163C28.7358 6.21562 26.9718 5.51562 24.7878 5.51562C22.5758 5.51562 20.8118 6.21562 19.4958 7.67163C18.1518 9.09962 17.5078 10.9196 17.5078 13.1596C17.5078 15.3716 18.1518 17.1916 19.4678 18.5916C20.8118 20.0476 22.5758 20.7756 24.7878 20.7756C26.9718 20.7756 28.7638 20.0476 30.1078 18.5916C31.3958 17.1916 32.0678 15.3716 32.0678 13.1596C32.0678 10.9196 31.3958 9.09962 30.0798 7.67163ZM21.7078 9.68762C22.4358 8.62362 23.4438 8.11963 24.7878 8.11963C26.1038 8.11963 27.1398 8.62362 27.8678 9.68762C28.4838 10.5836 28.8198 11.7596 28.8198 13.1596C28.8198 14.5316 28.4838 15.6796 27.8678 16.6036C27.1398 17.6396 26.1038 18.1716 24.7878 18.1716C23.4438 18.1716 22.4358 17.6396 21.7078 16.6036C21.0918 15.7076 20.7838 14.5596 20.7838 13.1596C20.7838 11.7596 21.0918 10.5836 21.7078 9.68762Z" fill="url(#paint14_radial_2020_72620)"/>
<path fill-rule="evenodd" clip-rule="evenodd" d="M0 0.391602H8.288C13.104 0.391602 15.54 2.4356 15.54 6.5236C15.54 10.6396 13.104 12.7116 8.232 12.7116H3.276V20.3836H0V0.391602ZM3.276 3.1916V9.9116H8.036C9.492 9.9116 10.556 9.6316 11.228 9.1276C11.9 8.5956 12.236 7.7276 12.236 6.5236C12.236 5.3196 11.872 4.4796 11.2 3.9756C10.528 3.4436 9.464 3.1916 8.036 3.1916H3.276Z" fill="url(#paint15_radial_2020_72620)"/>
<path d="M180.036 0.383789H184.04L174.857 10.0478L180.54 20.3758H177.036L172.638 12.3832L165.044 20.3758H161.04L171.17 9.7146L166.036 0.383789H169.54L173.389 7.37921L180.036 0.383789Z" fill="url(#paint16_radial_2020_72620)"/>
<defs>
<radialGradient id="paint0_radial_2020_72620" cx="0" cy="0" r="1" gradientUnits="userSpaceOnUse" gradientTransform="translate(-22.1348 -9.124) rotate(5.2498) scale(327.875 133.518)">
<stop stop-color="#56E3F6"/>
<stop offset="1" stop-color="#3453F5"/>
</radialGradient>
<radialGradient id="paint1_radial_2020_72620" cx="0" cy="0" r="1" gradientUnits="userSpaceOnUse" gradientTransform="translate(-22.1348 -9.124) rotate(5.2498) scale(327.875 133.518)">
<stop stop-color="#56E3F6"/>
<stop offset="1" stop-color="#3453F5"/>
</radialGradient>
<radialGradient id="paint2_radial_2020_72620" cx="0" cy="0" r="1" gradientUnits="userSpaceOnUse" gradientTransform="translate(-22.1348 -9.124) rotate(5.2498) scale(327.875 133.518)">
<stop stop-color="#56E3F6"/>
<stop offset="1" stop-color="#3453F5"/>
</radialGradient>
<radialGradient id="paint3_radial_2020_72620" cx="0" cy="0" r="1" gradientUnits="userSpaceOnUse" gradientTransform="translate(-22.1348 -9.124) rotate(5.2498) scale(327.875 133.518)">
<stop stop-color="#56E3F6"/>
<stop offset="1" stop-color="#3453F5"/>
</radialGradient>
<radialGradient id="paint4_radial_2020_72620" cx="0" cy="0" r="1" gradientUnits="userSpaceOnUse" gradientTransform="translate(-22.1348 -9.124) rotate(5.2498) scale(327.875 133.518)">
<stop stop-color="#56E3F6"/>
<stop offset="1" stop-color="#3453F5"/>
</radialGradient>
<radialGradient id="paint5_radial_2020_72620" cx="0" cy="0" r="1" gradientUnits="userSpaceOnUse" gradientTransform="translate(-22.1348 -9.124) rotate(5.2498) scale(327.875 133.518)">
<stop stop-color="#56E3F6"/>
<stop offset="1" stop-color="#3453F5"/>
</radialGradient>
<radialGradient id="paint6_radial_2020_72620" cx="0" cy="0" r="1" gradientUnits="userSpaceOnUse" gradientTransform="translate(-22.1348 -9.124) rotate(5.2498) scale(327.875 133.518)">
<stop stop-color="#56E3F6"/>
<stop offset="1" stop-color="#3453F5"/>
</radialGradient>
<radialGradient id="paint7_radial_2020_72620" cx="0" cy="0" r="1" gradientUnits="userSpaceOnUse" gradientTransform="translate(-22.1348 -9.124) rotate(5.2498) scale(327.875 133.518)">
<stop stop-color="#56E3F6"/>
<stop offset="1" stop-color="#3453F5"/>
</radialGradient>
<radialGradient id="paint8_radial_2020_72620" cx="0" cy="0" r="1" gradientUnits="userSpaceOnUse" gradientTransform="translate(-22.1348 -9.124) rotate(5.2498) scale(327.875 133.518)">
<stop stop-color="#56E3F6"/>
<stop offset="1" stop-color="#3453F5"/>
</radialGradient>
<radialGradient id="paint9_radial_2020_72620" cx="0" cy="0" r="1" gradientUnits="userSpaceOnUse" gradientTransform="translate(-22.1348 -9.124) rotate(5.2498) scale(327.875 133.518)">
<stop stop-color="#56E3F6"/>
<stop offset="1" stop-color="#3453F5"/>
</radialGradient>
<radialGradient id="paint10_radial_2020_72620" cx="0" cy="0" r="1" gradientUnits="userSpaceOnUse" gradientTransform="translate(-22.1348 -9.124) rotate(5.2498) scale(327.875 133.518)">
<stop stop-color="#56E3F6"/>
<stop offset="1" stop-color="#3453F5"/>
</radialGradient>
<radialGradient id="paint11_radial_2020_72620" cx="0" cy="0" r="1" gradientUnits="userSpaceOnUse" gradientTransform="translate(-22.1348 -9.124) rotate(5.2498) scale(327.875 133.518)">
<stop stop-color="#56E3F6"/>
<stop offset="1" stop-color="#3453F5"/>
</radialGradient>
<radialGradient id="paint12_radial_2020_72620" cx="0" cy="0" r="1" gradientUnits="userSpaceOnUse" gradientTransform="translate(-22.1348 -9.124) rotate(5.2498) scale(327.875 133.518)">
<stop stop-color="#56E3F6"/>
<stop offset="1" stop-color="#3453F5"/>
</radialGradient>
<radialGradient id="paint13_radial_2020_72620" cx="0" cy="0" r="1" gradientUnits="userSpaceOnUse" gradientTransform="translate(-22.1348 -9.124) rotate(5.2498) scale(327.875 133.518)">
<stop stop-color="#56E3F6"/>
<stop offset="1" stop-color="#3453F5"/>
</radialGradient>
<radialGradient id="paint14_radial_2020_72620" cx="0" cy="0" r="1" gradientUnits="userSpaceOnUse" gradientTransform="translate(-22.1348 -9.124) rotate(5.2498) scale(327.875 133.518)">
<stop stop-color="#56E3F6"/>
<stop offset="1" stop-color="#3453F5"/>
</radialGradient>
<radialGradient id="paint15_radial_2020_72620" cx="0" cy="0" r="1" gradientUnits="userSpaceOnUse" gradientTransform="translate(-22.1348 -9.124) rotate(5.2498) scale(327.875 133.518)">
<stop stop-color="#56E3F6"/>
<stop offset="1" stop-color="#3453F5"/>
</radialGradient>
<radialGradient id="paint16_radial_2020_72620" cx="0" cy="0" r="1" gradientUnits="userSpaceOnUse" gradientTransform="translate(-22.1348 -9.124) rotate(5.2498) scale(327.875 133.518)">
<stop stop-color="#56E3F6"/>
<stop offset="1" stop-color="#3453F5"/>
</radialGradient>
</defs>
</svg>
