<svg width="40" height="40" viewBox="0 0 40 40" fill="none" xmlns="http://www.w3.org/2000/svg">
<rect width="40" height="40" rx="20" fill="#D9D9DB" fill-opacity="0.4"/>
<path d="M16.9486 15.7821V14.6154H26.5511V15.7821H16.9486ZM16.9486 19.0128V17.8462H26.5511V19.0128H16.9486ZM19.8203 30.5H12.9998C12.3417 30.5 11.7883 30.2756 11.3396 29.8269C10.8909 29.3782 10.6665 28.8248 10.6665 28.1667V24.9359H14.1665V9.5H29.3332V18.7054C29.1238 18.7114 28.9245 18.7335 28.7353 18.7716C28.546 18.8098 28.3565 18.864 28.1665 18.9343V10.6667H15.3332V24.9359H21.5703L20.4037 26.1026H11.8332V28.1667C11.8332 28.4972 11.945 28.7743 12.1686 28.9979C12.3922 29.2215 12.6693 29.3333 12.9998 29.3333H19.8203V30.5ZM22.6024 30.5V27.9221L28.8239 21.7298C28.9391 21.6146 29.0587 21.5369 29.1828 21.4965C29.307 21.4561 29.4311 21.4359 29.5553 21.4359C29.6839 21.4359 29.8141 21.461 29.9457 21.5111C30.0773 21.5612 30.1932 21.6363 30.2934 21.7365L31.3726 22.8382C31.4683 22.9533 31.5412 23.073 31.5913 23.1971C31.6415 23.3213 31.6665 23.4454 31.6665 23.5696C31.6665 23.6937 31.6426 23.819 31.5947 23.9453C31.5469 24.0717 31.4728 24.1925 31.3726 24.3077L25.1803 30.5H22.6024ZM23.6344 29.4679H24.7428L28.788 25.416L28.2405 24.8619L27.7088 24.292L23.6344 28.3596V29.4679ZM28.2405 24.8619L27.7088 24.292L28.788 25.416L28.2405 24.8619Z" fill="#1D1C23"/>
</svg>
