<svg width="40" height="40" viewBox="0 0 40 40" fill="none" xmlns="http://www.w3.org/2000/svg">
<rect width="40" height="40" rx="20" fill="#D9D9DB" fill-opacity="0.4"/>
<path d="M28.0857 29.3333C26.1189 29.3333 24.1026 28.8409 22.037 27.8559C19.9714 26.871 18.0524 25.4886 16.28 23.7086C14.5075 21.9287 13.1288 20.0097 12.1439 17.9516C11.159 15.8935 10.6665 13.881 10.6665 11.9141C10.6665 11.5577 10.7832 11.2607 11.0165 11.0231C11.2498 10.7855 11.5415 10.6667 11.8915 10.6667H14.7768C15.0939 10.6667 15.3706 10.7665 15.6069 10.9662C15.8432 11.1658 16.0033 11.422 16.087 11.7346L16.6659 14.5167C16.7197 14.8427 16.71 15.1277 16.6367 15.3715C16.5634 15.6153 16.434 15.8149 16.2486 15.9705L13.6886 18.3577C14.1673 19.2267 14.6964 20.034 15.276 20.7796C15.8556 21.5253 16.4737 22.2316 17.1303 22.8987C17.8079 23.5763 18.537 24.2063 19.3178 24.7889C20.0985 25.3715 20.9556 25.9216 21.8889 26.4391L24.3838 23.8993C24.5738 23.6944 24.7873 23.5595 25.0244 23.4944C25.2614 23.4293 25.5235 23.4162 25.8107 23.4551L28.2652 23.9577C28.5823 24.0355 28.8396 24.1951 29.037 24.4367C29.2345 24.6782 29.3332 24.9553 29.3332 25.2679V28.1083C29.3332 28.4583 29.2144 28.75 28.9768 28.9833C28.7392 29.2167 28.4422 29.3333 28.0857 29.3333ZM13.1412 17.2628L15.3803 15.2032C15.4551 15.1434 15.5037 15.0611 15.5261 14.9564C15.5485 14.8517 15.5448 14.7545 15.5149 14.6647L14.9966 12.1923C14.9667 12.0726 14.9144 11.9829 14.8396 11.9231C14.7648 11.8632 14.6676 11.8333 14.5479 11.8333H12.154C12.0643 11.8333 11.9895 11.8632 11.9297 11.9231C11.8698 11.9829 11.8399 12.0577 11.8399 12.1474C11.8623 12.9446 11.9872 13.777 12.2146 14.6446C12.4419 15.5121 12.7508 16.3848 13.1412 17.2628ZM22.9995 26.9865C23.7878 27.3769 24.628 27.6656 25.5202 27.8526C26.4124 28.0395 27.1898 28.1397 27.8524 28.1532C27.9421 28.1532 28.0169 28.1233 28.0768 28.0635C28.1366 28.0036 28.1665 27.9288 28.1665 27.8391V25.4968C28.1665 25.3771 28.1366 25.2799 28.0768 25.2051C28.0169 25.1303 27.9272 25.078 27.8075 25.0481L25.6492 24.6061C25.5595 24.5762 25.4809 24.5724 25.4136 24.5949C25.3463 24.6173 25.2753 24.6659 25.2005 24.7407L22.9995 26.9865Z" fill="#1D1C23"/>
</svg>
