<svg width="24" height="24" viewBox="0 0 24 24" fill="none" xmlns="http://www.w3.org/2000/svg">
<path d="M5.45679 18.1847C3.35802 16.677 2 14.4001 2 11.9078C2 7.32317 6.4753 3.6001 12 3.6001C17.5247 3.6001 22 7.32317 22 11.9078C22 16.4924 17.5247 20.2155 12 20.2155C10.858 20.2155 9.74691 20.0616 8.72839 19.7539C8.6358 19.7232 8.51234 19.7232 8.41975 19.7232C8.23456 19.7232 8.04938 19.7847 7.89506 19.877L5.7037 21.1386C5.64197 21.1693 5.58024 21.2001 5.51852 21.2001C5.33333 21.2001 5.17901 21.0463 5.17901 20.8616C5.17901 20.7693 5.20987 20.7078 5.24074 20.6155C5.2716 20.5847 5.54938 19.5693 5.7037 18.9539C5.7037 18.8924 5.73456 18.8001 5.73456 18.7386C5.73456 18.4924 5.64197 18.3078 5.45679 18.1847ZM8.66666 10.5115C9.38395 10.5115 9.9518 9.94335 9.9518 9.22567C9.9518 8.50799 9.38395 7.93982 8.66666 7.93982C7.94938 7.93982 7.38152 8.50799 7.38152 9.22567C7.38152 9.94335 7.94938 10.5115 8.66666 10.5115ZM15.3333 10.5115C16.0506 10.5115 16.6184 9.94335 16.6184 9.22567C16.6184 8.50799 16.0506 7.93982 15.3333 7.93982C14.616 7.93982 14.0482 8.50799 14.0482 9.22567C14.0482 9.94335 14.616 10.5115 15.3333 10.5115Z" fill="#A3A8AB"/>
</svg>
