<svg width="24" height="24" viewBox="0 0 24 24" fill="none" xmlns="http://www.w3.org/2000/svg">
<path d="M6.65875 18.9641C6.61682 18.9147 6.56437 18.8464 6.50255 18.7545C6.26475 18.4009 5.98824 17.8492 5.6984 17.1274C5.12332 15.6952 4.55981 13.7552 4.16221 11.8007C3.76247 9.83556 3.54632 7.93245 3.62549 6.55749C3.66578 5.85789 3.77802 5.39553 3.9076 5.14053C3.9369 5.08288 3.96258 5.04507 3.98137 5.02166C3.98935 5.01173 3.99583 5.00472 4.00054 5C4.29224 5.00083 4.73956 5.16186 5.35629 5.65098C5.95642 6.12695 6.60645 6.82548 7.28346 7.68296C8.51898 9.24783 9.74673 11.2146 10.8349 13.009C10.6555 13.3241 10.4654 13.6685 10.2701 14.0226C10.1785 14.1886 10.0857 14.3568 9.99234 14.5251C9.57319 15.2801 9.12824 16.0616 8.66784 16.7698C8.20279 17.4853 7.74966 18.0822 7.32445 18.4904C7.02386 18.7788 6.80346 18.9093 6.65875 18.9641ZM11.9982 11.0762C11.0361 9.51354 9.95557 7.83986 8.85318 6.44361C8.13185 5.53 7.37187 4.69689 6.59907 4.08398C5.84445 3.4855 4.95665 3 3.99829 3C3.07557 3 2.46252 3.56952 2.12461 4.23447C1.80955 4.85447 1.67489 5.64211 1.6288 6.44251C1.53522 8.06755 1.78841 10.1644 2.20235 12.1993C2.61843 14.2448 3.21292 16.3048 3.84243 17.8726C4.15488 18.6508 4.49231 19.3491 4.84287 19.8705C5.017 20.1295 5.22008 20.3838 5.45579 20.5834C5.68141 20.7745 6.0378 21 6.49828 21C7.39277 21 8.14592 20.4741 8.70935 19.9333C9.29788 19.3684 9.84875 18.6228 10.3446 17.8599C10.8452 17.0898 11.3183 16.2571 11.7409 15.4958C11.8264 15.3418 11.9094 15.1916 11.9899 15.0457C11.998 15.0606 12.006 15.0757 12.0141 15.0907C12.0825 15.2186 12.1528 15.3497 12.2249 15.4839C12.6332 16.2436 13.091 17.0787 13.582 17.8512C14.0685 18.6168 14.6171 19.3686 15.2205 19.9387C15.8096 20.4953 16.5795 21 17.4982 21C17.9587 21 18.3151 20.7745 18.5407 20.5834C18.7764 20.3838 18.9795 20.1295 19.1536 19.8705C19.5042 19.3492 19.8416 18.6508 20.1541 17.8726C20.7836 16.3049 21.3783 14.2448 21.7943 12.1993C22.2083 10.1645 22.4615 8.06756 22.3679 6.44252C22.3218 5.64211 22.1872 4.85447 21.8721 4.23447C21.5342 3.5695 20.9212 3 19.9984 3C19.04 3 18.1522 3.48548 17.3975 4.08397C16.6247 4.69687 15.8647 5.52998 15.1433 6.4436C14.0409 7.83985 12.9603 9.51354 11.9982 11.0762ZM13.1602 13.0111C14.2488 11.2161 15.477 9.24844 16.713 7.68297C17.3901 6.8255 18.0401 6.12696 18.6403 5.651C19.257 5.16187 19.7044 5.00082 19.9962 5C20.0009 5.00471 20.0073 5.01173 20.0153 5.02167C20.0341 5.04507 20.0598 5.08288 20.0891 5.14053C20.2188 5.39552 20.3309 5.85789 20.3712 6.55748C20.4504 7.93244 20.2342 9.83555 19.8344 11.8006C19.4368 13.7552 18.8733 15.6951 18.2981 17.1274C18.0083 17.8492 17.7318 18.4008 17.494 18.7545C17.4284 18.852 17.3734 18.9229 17.3302 18.9729C17.1568 18.9214 16.9133 18.7865 16.594 18.4849C16.1676 18.0821 15.7229 17.4913 15.2699 16.7785C14.8213 16.0726 14.3932 15.2935 13.9865 14.537C13.9194 14.4121 13.8525 14.2872 13.7861 14.163C13.5712 13.7617 13.3606 13.3683 13.1602 13.0111Z" fill="#A3A8AB"/>
</svg>
