<svg width="134" height="29" viewBox="0 0 134 29" fill="none" xmlns="http://www.w3.org/2000/svg">
<path fill-rule="evenodd" clip-rule="evenodd" d="M8.743 13.0853C8.743 13.9878 6.40964 14.3957 5.55356 14.6492C4.99417 14.816 2.07051 15.5794 1.86035 15.7618H7.48824C8.79554 15.7618 12.0777 15.8452 12.0777 14.7233V14.6677C12.0777 13.6694 10.3594 12.733 9.64235 12.2972C9.15714 12.0006 6.96594 10.6098 6.61671 10.5171C6.98139 11.061 8.74609 12.5012 8.74609 13.0853" fill="white"/>
<path fill-rule="evenodd" clip-rule="evenodd" d="M16.828 8.60418C16.3459 8.92559 14.7975 10.681 14.371 10.681H14.2072C12.9988 10.681 12.1396 4.25887 11.5864 3.854C11.5864 5.60016 11.6421 7.21034 11.6421 8.98741C11.6421 10.5759 11.4937 12.8197 12.1304 13.7407C12.9803 14.9707 14.5472 12.4581 14.8871 11.9049C15.1838 11.4166 16.7507 8.91014 16.8311 8.60418" fill="white"/>
<path fill-rule="evenodd" clip-rule="evenodd" d="M13.4406 14.5598C13.4406 15.4808 15.1651 16.581 15.8605 16.9457C16.4755 17.2671 18.4566 18.6084 18.9016 18.7104C18.0331 17.4155 15.1558 16.1267 18.1568 15.1254C19.0654 14.8225 19.9987 14.6123 20.9166 14.3342C21.3833 14.192 23.3952 13.6883 23.6549 13.5214H18.027C16.6548 13.5214 13.4375 13.3699 13.4375 14.5598" fill="white"/>
<path fill-rule="evenodd" clip-rule="evenodd" d="M8.632 20.6787C9.11103 20.3573 10.6563 18.6018 11.089 18.6018H11.2528C12.078 18.6018 12.5106 20.9537 12.7486 21.7511C12.9804 22.533 13.7098 24.7118 13.7654 25.3763H13.8736C13.8736 23.7661 13.8179 21.9458 13.8179 20.2398C13.8179 18.7873 13.9385 16.2561 13.3142 15.4989C12.3994 14.3956 10.9221 16.8 10.5729 17.3749C10.2731 17.8694 8.71235 20.3573 8.62891 20.6756" fill="white"/>
<path fill-rule="evenodd" clip-rule="evenodd" d="M0 14.232V15.1035C0 21.8378 5.95549 27.4194 12.7856 27.4565C19.5632 27.4935 25.5156 21.7328 25.5156 15.051V14.3433C25.5156 7.57186 19.6219 1.88525 12.7856 1.88525C5.94931 1.88525 0 7.51623 0 14.232ZM1.08787 14.6152C1.08787 11.1384 2.67023 8.27033 4.41949 6.52417C6.16874 4.77801 8.95641 3.02876 12.2942 3.02876H13.2183C16.5623 3.02876 19.4272 4.85836 21.1208 6.55198C22.8144 8.2456 24.4246 11.2187 24.4246 14.6709C24.4246 18.123 22.8268 21.0837 21.093 22.8175C19.4117 24.4988 16.485 26.313 13.1626 26.313H12.4549C6.29545 26.313 1.08478 20.9478 1.08478 14.7265V14.6183H1.08787V14.6152Z" fill="white"/>
<path fill-rule="evenodd" clip-rule="evenodd" d="M47.4679 7.61498C48.0674 7.61498 48.7381 6.84543 48.7381 6.20569V6.06352C48.7381 5.26925 47.3535 5.07764 46.482 5.07764C45.4436 5.07764 41.6607 8.03838 40.2792 8.03838C39.7662 8.03838 39.7848 7.87149 39.2934 7.75714C39.3212 9.02427 40.4029 9.83708 41.2682 10.2945C41.1941 10.6097 41.1261 10.619 41.1261 10.9991V11.2804C41.1261 12.4177 41.8431 13.5117 42.9588 13.5365C42.2634 14.1422 38.632 16.0738 37.4607 16.0738C37.2103 16.0738 37.2289 15.8636 37.1794 15.6504C34.9604 16.1665 35.8629 18.6111 36.8982 18.6111C38.3013 18.6111 41.4753 15.9378 43.2431 15.7926L42.1768 16.9886L42.2881 17.1091L44.5813 15.5453C44.4978 17.5047 42.5044 18.2063 41.2682 19.0346H40.1402C39.8991 19.1953 39.5777 19.3405 39.5777 19.7392V20.0204C39.5777 20.7436 40.3534 21.4514 40.8448 21.7141C40.7243 21.9428 40.443 22.4187 40.1402 22.4187C39.76 22.4187 39.7508 22.3507 39.4355 22.2765C39.1945 22.4372 38.873 22.5825 38.873 22.9812C38.873 23.8929 39.2006 24.956 40.1433 24.956H40.2854C41.0426 24.956 41.4104 24.4523 41.5556 23.828C42.3685 23.8094 42.4117 23.2161 42.6837 22.6999C43.138 23.0337 43.8828 24.3905 44.3742 24.3905H45.6444C45.7619 23.8898 46.0678 23.4046 46.0678 22.9812V22.5578C46.0678 22.0262 45.6506 20.9383 45.5054 20.3017C45.6568 20.3419 49.999 23.0152 48.7473 21.1485C49.146 21.1145 49.3098 21.1485 49.3098 20.7251V20.4438C49.3098 19.7948 48.7474 20.0915 48.3239 19.458L45.6321 19.6063L45.5115 19.3158C46.3676 18.0301 46.5067 18.4319 47.7584 17.7674C47.7584 16.8001 48.0396 17.0164 48.0396 16.3581C48.0396 16.0893 47.2577 15.9347 47.0537 15.3723L45.2241 15.4619C46.0122 14.6831 49.7332 13.9351 49.7332 12.8318C49.7332 12.2786 49.2078 11.8459 48.6052 11.8459H47.9005C48.0983 11.098 48.463 11.6914 48.463 10.7179V10.5757C48.463 10.0936 47.4679 9.51566 47.0846 9.2746C46.2007 8.71212 46.1327 8.95318 45.2179 9.16643V9.72891C46.4913 10.0689 46.108 12.6093 43.9477 13.1131L44.5195 10.8601L43.6387 9.89889C44.0559 9.13553 44.5133 8.59468 45.221 8.18364C46.6458 7.35228 45.799 7.61498 47.474 7.61498M43.9106 20.3851L43.9415 21.7141C43.9415 22.0386 43.8427 22.1375 43.5181 22.1375C42.8382 22.1375 42.523 21.6986 42.2356 21.2628L43.9106 20.3851Z" fill="white"/>
<path fill-rule="evenodd" clip-rule="evenodd" d="M74.3959 9.16638L72.6126 10.5046L72.7332 9.73504C71.7627 9.9792 70.5883 13.7157 70.5883 15.2269C70.5883 15.74 70.9499 16.7784 71.4351 16.7784C71.7195 16.7784 72.0223 16.1541 72.1398 15.9316C72.0625 15.6009 71.9976 15.5144 71.9976 15.0848C71.9976 14.4512 71.9265 12.1642 72.5632 11.7006C72.9557 12.7854 75.5857 11.3823 74.776 12.77C74.3062 13.5766 73.4131 13.762 72.7023 14.238L74.1177 15.7832L73.9447 16.2005L73.5491 16.2097C73.1195 16.2097 72.1398 16.6146 72.1398 17.0566C72.1398 17.5727 72.3592 17.7396 72.5632 18.0424C71.1972 18.7656 68.8885 21.4266 67.2042 21.4266C67.0002 21.7326 66.7808 21.8964 66.7808 22.4125V22.6937C66.7808 24.2606 71.5773 22.088 71.9976 21.9891C72.01 22.5145 72.3005 23.5405 72.7023 23.5405C72.9866 23.5405 73.5738 23.1882 73.5491 22.975L73.3822 21.2875L75.8144 20.6045C75.8052 21.986 75.5826 22.7493 75.5239 23.9639C75.4497 25.5092 74.9614 25.6545 74.3959 26.5013C74.6153 26.6465 74.9089 26.9247 75.2427 26.9247C75.8361 26.9247 76.6736 25.5154 76.8529 24.8695C77.1588 23.7878 76.9332 22.5732 76.9332 21.7078V21.0032C76.9332 19.801 77.2114 19.2168 78.2251 19.053C79.2511 18.8862 80.2247 18.8243 80.8798 19.1705C81.1858 19.0098 81.5845 18.9232 81.5845 18.4658C81.5845 17.4305 80.4873 16.9144 79.4706 16.9144C78.9761 16.9144 78.1633 17.6932 77.3566 17.7612C78.1942 16.1788 77.9222 17.2173 77.9222 15.3629C77.9222 14.7912 78.2992 14.8963 78.1231 13.898C77.9964 13.181 78.0211 13.1161 77.8357 12.4856C77.4957 11.3421 77.6379 10.4521 77.6379 9.44144V9.1602C77.6379 8.56063 77.199 8.17432 76.652 8.17432C75.5239 8.17432 75.2365 8.93768 74.3959 9.1602M74.9614 15.3722C75.1994 14.7819 76.2317 15.0755 76.2317 14.2442C76.2317 13.8517 75.6661 14.1391 75.6661 13.5395C75.6661 13.0419 76.2317 12.9708 76.2317 12.6927C76.2317 11.475 75.8206 11.577 75.2458 10.7178H74.5411C74.7266 10.4644 75.3879 10.0626 75.7712 9.94829C76.3336 9.7814 76.3306 10.656 76.3707 11.1443C76.4789 12.4115 76.6582 13.4035 76.6582 14.8066V14.9488C76.6582 15.7894 75.8392 14.9488 74.9676 15.3722M73.1287 18.7533C73.7963 18.574 73.7994 18.0486 74.9614 18.0486C75.082 18.0486 75.3848 18.3515 75.3848 18.472C75.3848 18.8182 73.6912 19.3621 73.2709 19.4579L73.1287 18.7533ZM72.1274 19.2941C72.1274 20.1347 71.5958 20.0915 70.8541 20.4283C70.3596 20.6509 69.6457 21.0434 69.1296 21.065L72.1274 19.2941Z" fill="white"/>
<path fill-rule="evenodd" clip-rule="evenodd" d="M102.288 9.88682C101.948 9.75084 102.411 8.82677 102.411 8.27356C102.411 7.76362 101.654 7.14551 101.002 7.14551H100.298C99.7969 7.14551 99.7443 7.62763 99.7351 8.13139L100.483 8.64442L100.594 11.0921C99.049 12.1182 98.1713 12.0471 96.7743 12.7858C97.0556 13.2061 97.4882 13.7716 98.1836 13.7716H98.3258C99.392 13.7716 99.7382 13.4039 100.582 13.2092C100.461 13.4626 99.596 15.6754 99.596 15.7465C99.596 16.1545 99.9514 17.0167 100.443 17.0167H100.724C100.993 17.0167 101.701 16.4542 102.557 16.4542H102.699C103.611 16.4542 102.674 19.5201 101.994 19.415L97.9209 18.7443L97.7633 18.8525C96.9876 18.8525 96.354 19.0379 96.354 19.8384C96.354 19.9311 96.8454 20.2 97.0463 20.8397C97.1885 21.294 97.2472 21.6989 97.4357 22.1439C97.7787 22.9537 98.3938 23.3647 99.4569 23.3647C101.033 23.3647 101.892 22.6292 102.418 21.532C104.603 22.042 106.729 23.9272 109.044 23.9272C109.486 23.9272 109.442 23.6738 109.606 23.3647C108.219 20.7439 107.254 20.1474 103.543 19.8415C103.626 18.8216 104.389 18.5435 104.389 17.0229V16.7417C104.389 15.0913 103.008 15.0511 101.287 15.0511C101.562 14.4794 101.871 12.693 102.164 12.4025C102.513 12.0595 103.966 11.6206 104.529 11.2436L105.793 11.4166C105.969 11.1292 106.08 11.1385 106.08 10.8202C106.08 9.84974 105.038 9.41088 103.966 9.41088C103.49 9.41088 102.411 9.94554 102.294 9.8961M99.8741 21.8071C98.471 21.8071 97.8313 20.7656 97.3368 19.8322L101.191 20.951L101.144 21.0993C100.872 21.5042 100.548 21.804 99.8741 21.804" fill="white"/>
<path fill-rule="evenodd" clip-rule="evenodd" d="M94.8273 7.9924C94.8304 7.62154 94.2926 7.28467 93.8105 7.28467H92.8246C92.5001 7.28467 92.4012 7.38357 92.4012 7.70807V7.85024C92.4012 9.05555 92.9668 9.60567 92.9668 10.811V11.2344C92.9668 12.0997 89.3818 13.4163 88.4546 13.6296C88.6338 14.3002 89.4436 14.4764 90.2873 14.4764H91.1341C92.0365 14.4764 92.2065 14.1951 93.109 14.1951L93.2851 17.4371C93.2882 18.0336 92.0798 18.7352 91.6193 19.0504C89.969 20.1784 90.2286 19.2729 89.4436 19.2729C89.1901 19.2729 88.878 20.0486 88.878 20.401V21.2478C88.878 21.7948 89.0665 22.6571 89.5826 22.6571C90.2224 22.6571 90.3182 22.3573 90.7107 22.0915C92.0396 22.9816 92.5959 23.7604 94.5182 24.2054L94.7717 23.8964L94.9108 23.9149L94.4997 18.8495C94.4564 18.1232 94.9169 17.8327 94.7222 17.1033C94.5492 16.4636 94.3761 16.2596 94.3761 15.4623V14.3342C94.3761 12.4613 96.9134 12.4119 96.9134 11.7969C96.9134 10.9037 95.5659 10.3227 94.6573 10.2454L94.8273 7.9924ZM93.3778 19.3996L93.5602 20.9573L93.5293 21.3838L91.7306 21.1334L93.3778 19.3996Z" fill="white"/>
<path fill-rule="evenodd" clip-rule="evenodd" d="M53.389 8.60416C53.5868 8.98121 53.9515 9.36135 53.9515 9.59005C53.9515 9.6395 53.012 11.6885 52.8698 12.0347C52.363 13.2554 51.8159 12.6095 51.2689 13.8179C50.9259 14.5751 50.0049 18.3116 50.0049 19.3191V19.4613C50.0049 20.0207 50.317 21.5752 50.8517 21.5752H50.9939C51.3925 21.5752 51.9396 20.8582 52.1219 20.5893L51.9488 19.0409C51.8159 17.7213 54.9127 16.5005 56.0129 16.1606C57.9136 15.5795 60.2161 15.8979 61.2854 14.6647L60.213 13.342C58.5719 13.5274 56.8752 14.4391 55.4844 14.9243C54.1215 15.4003 52.193 17.0692 51.6985 17.2021C52.2424 10.6748 55.9851 12.7393 57.0544 11.1384C56.5692 10.2174 55.4133 8.60107 54.0937 8.60107H53.389V8.60416Z" fill="white"/>
<path fill-rule="evenodd" clip-rule="evenodd" d="M74.3956 9.16665C74.5656 8.91323 74.6768 8.91941 74.6768 8.60417C74.6768 7.36177 72.9863 6.8642 72.9863 6.34807C72.9863 5.85977 73.4314 5.73615 73.8331 5.64343C73.8331 4.8028 72.4578 2.25928 71.8583 2.25928H71.4349C71.0764 2.25928 70.0781 4.15069 69.8 4.57101C69.4476 5.10258 68.1929 6.53042 68.1929 7.05272C68.1929 7.06817 68.3845 8.39402 68.4216 8.50837C68.6039 9.07703 68.7554 9.44789 69.4631 9.44789H69.6053C70.7271 9.44789 71.6852 8.99358 72.4238 8.60108C72.6124 8.7278 73.3232 9.30573 73.5519 9.30573C74.0835 9.30573 73.8177 9.21301 74.3987 9.16356" fill="white"/>
<path fill-rule="evenodd" clip-rule="evenodd" d="M74.5379 3.24508V3.80756C74.5379 4.59564 75.3136 5.61244 75.9534 5.78551L75.5238 6.91047C76.5128 7.14226 77.4029 6.60759 78.4722 6.4747C78.877 6.42525 79.4952 6.17801 79.7857 5.95549C79.8969 5.86895 80.5985 4.79653 80.5985 4.79344C80.5985 2.85567 78.6576 3.85082 77.9437 2.51262C77.647 1.95323 76.2006 0 75.5207 0H75.0973C74.8964 0.862263 74.5317 2.26537 74.5317 3.24199" fill="white"/>
<path fill-rule="evenodd" clip-rule="evenodd" d="M55.6454 16.6396H55.5032C55.1262 16.6396 55.086 16.8436 54.9377 17.0631C55.188 17.437 55.426 17.9377 55.3611 18.6145L55.0366 22.4159C54.9469 23.785 55.2251 24.5391 54.641 26.072C54.3628 26.8045 53.1606 28.0932 53.105 28.767L54.0878 28.5939C55.5898 26.3872 57.1567 27.574 57.4905 23.272C57.6141 21.6803 57.2989 16.6396 55.6423 16.6396" fill="white"/>
<path fill-rule="evenodd" clip-rule="evenodd" d="M43.2367 1.13125C43.2367 1.51757 43.5179 1.59174 43.5179 1.97806C43.5179 3.2081 43.3325 3.81694 42.9554 4.65757C42.6556 5.32513 41.9881 6.69733 43.2738 5.3993C45.4402 3.2081 46.114 5.2355 47.993 3.94674L48.1692 2.96704C47.6531 1.99042 47.5634 1.58247 46.3396 1.27342C45.604 1.08798 44.2195 0.710938 43.3757 0.710938C43.3325 0.877827 43.2336 1.09417 43.2336 1.13434" fill="white"/>
<path d="M116.035 12.8504C116.164 13.2274 116.396 13.45 116.742 13.5149C117.088 13.5736 117.466 13.5427 117.87 13.419C118.281 13.2954 118.658 13.1533 119.005 12.9956C119.348 12.838 119.756 12.6495 120.225 12.4301C120.695 12.2106 120.964 12.0685 121.026 12.0067C121.156 11.8769 121.344 11.7872 121.594 11.7223C121.848 11.6636 122.049 11.5833 122.206 11.4905C122.364 11.3947 122.509 11.3175 122.633 11.2526C122.757 11.1289 122.855 10.9064 122.914 10.5943C122.979 10.2821 122.964 9.98236 122.868 9.69803C122.775 9.41679 122.71 9.10464 122.682 8.7585C122.651 8.41236 122.633 8.14657 122.633 7.95805C122.568 7.89315 122.568 7.75407 122.633 7.53155C122.698 7.31521 122.698 7.16996 122.633 7.10815C122.633 7.04324 122.587 6.91962 122.494 6.7311C122.398 6.54258 122.305 6.38496 122.209 6.26134C122.117 6.13771 122.086 5.99246 122.117 5.83484C122.148 5.67722 122.225 5.56905 122.355 5.50415C122.478 5.44543 122.556 5.41143 122.587 5.41143C122.617 5.41143 122.71 5.42689 122.868 5.46088C123.028 5.4887 123.137 5.50415 123.202 5.50415C123.202 5.50415 123.279 5.5196 123.433 5.55051C123.591 5.5845 123.702 5.59996 123.764 5.59996C123.829 5.59996 123.922 5.63086 124.045 5.69267C124.175 5.75758 124.265 5.8163 124.33 5.8812C124.518 6.13462 124.58 6.43132 124.518 6.77746C124.453 7.1236 124.422 7.49755 124.422 7.90551C124.422 8.31346 124.546 8.67505 124.799 8.99029C125.047 9.0521 125.411 9.14791 125.881 9.27153C126.357 9.39515 126.762 9.55277 127.108 9.74129C127.454 9.92982 127.658 10.1802 127.723 10.4985C127.723 10.8106 127.504 11.0115 127.059 11.1104C126.62 11.2031 126.134 11.2989 125.6 11.3916C125.065 11.4875 124.734 11.6296 124.611 11.8181C124.546 12.0067 124.626 12.223 124.849 12.4764C125.065 12.7268 125.18 12.9462 125.18 13.1347C125.18 13.9506 124.833 14.7356 124.141 15.4897C124.833 15.74 126.085 16.0367 127.908 16.3829C129.732 16.729 131.079 17.1555 131.96 17.6562C133.088 18.4072 133.753 19.0408 133.938 19.5414C134.127 19.9154 133.876 20.1688 133.187 20.2924C132.999 20.3573 132.776 20.3233 132.529 20.1997C132.275 20.0699 132.075 19.9463 131.914 19.8227C131.756 19.699 131.524 19.526 131.209 19.3035C130.897 19.0809 130.709 18.9419 130.644 18.877C129.262 18.0023 127.85 17.4677 126.403 17.2761C126.28 17.2761 126.107 17.2606 125.884 17.2266C125.668 17.1988 125.479 17.1493 125.322 17.0844C125.164 17.0257 124.991 16.9917 124.802 16.9917C124.614 16.9917 124.487 17.0535 124.425 17.1802C124.302 17.239 124.237 17.3657 124.237 17.5542V23.7724C124.302 23.8373 124.333 23.896 124.333 23.9609C124.395 24.338 124.395 24.7768 124.333 25.2806C124.268 25.7812 124.021 26.0687 123.576 26.1274C123.452 26.1274 123.294 26.1119 123.106 26.0779C122.917 26.0501 122.794 26.0007 122.729 25.9358C122.667 25.877 122.571 25.7472 122.447 25.5618C122.324 25.3733 122.259 25.2775 122.259 25.2775C121.378 24.3349 120.785 23.3922 120.47 22.4527C120.47 22.4527 120.454 22.3446 120.42 22.122C120.386 21.8995 120.343 21.7295 120.278 21.6028C120.213 21.4792 120.17 21.3216 120.136 21.1331C120.105 20.9445 120.024 20.8024 119.898 20.7097C119.774 20.6138 119.681 20.5366 119.617 20.4717C119.552 20.4068 119.493 20.3913 119.428 20.4222C119.363 20.4531 119.304 20.4871 119.239 20.518C119.178 20.5459 119.116 20.5953 119.051 20.6602C118.989 20.7189 118.927 20.7838 118.862 20.8487C117.858 21.4112 117.073 21.7883 116.507 21.9768C115.441 22.4156 114.842 22.258 114.718 21.507C115.911 21.1949 117.107 20.5335 118.3 19.5291C119.493 18.5246 120.559 17.3904 121.502 16.1356C121.564 15.9471 121.703 15.7586 121.925 15.5701C122.148 15.3815 122.336 15.1807 122.491 14.9581C122.648 14.7356 122.757 14.5316 122.821 14.3431C122.821 14.2195 122.741 13.9846 122.583 13.6385C122.426 13.2923 122.352 13.0235 122.352 12.8349C121.848 13.0235 120.97 13.4839 119.712 14.201C118.458 14.9241 117.422 15.3197 116.606 15.3785C116.167 15.3785 115.648 15.1776 115.052 14.7665C114.458 14.3555 114.344 13.9012 114.721 13.4005C114.786 13.212 115.225 13.0235 116.041 12.8318M129.886 7.66753C129.822 7.29358 129.713 7.00925 129.556 6.82072C129.395 6.63529 129.129 6.44677 128.752 6.25824C128.69 6.25824 128.595 6.22425 128.471 6.16244C128.347 6.10372 128.233 6.03882 128.14 5.977C128.048 5.9121 127.952 5.83175 127.859 5.73903C127.763 5.64632 127.72 5.53506 127.72 5.40834C127.655 5.15492 127.748 4.9973 128.001 4.93858C128.248 4.87368 128.536 4.84277 128.848 4.84277C129.54 4.84277 130.229 5.0962 130.919 5.59687C131.738 6.28915 131.676 6.91653 130.733 7.4821C130.545 7.60572 130.257 7.66753 129.886 7.66753ZM122.444 23.4973C122.568 23.4324 122.648 23.3088 122.682 23.1203C122.71 22.9318 122.726 22.7741 122.726 22.6505V21.711C122.664 19.7021 122.757 18.3516 123.01 17.6593L121.69 18.4103L120.275 19.8258L120.652 20.7653L122.441 23.4973H122.444Z" fill="white"/>
</svg>
