<svg width="90" height="20" viewBox="0 0 90 20" fill="none" xmlns="http://www.w3.org/2000/svg">
<g clip-path="url(#clip0_2959_771)">
<path fill-rule="evenodd" clip-rule="evenodd" d="M5.82873 9.39014C5.82873 9.99177 4.27315 10.2637 3.70243 10.4327C3.32951 10.5439 1.3804 11.0529 1.2403 11.1744H4.99222C5.86376 11.1744 8.05187 11.23 8.05187 10.4821V10.445C8.05187 9.77955 6.9063 9.15526 6.4283 8.86475C6.10482 8.66695 4.64402 7.73979 4.4112 7.67798C4.65432 8.0406 5.83079 9.00073 5.83079 9.39014" fill="#111212"/>
<path fill-rule="evenodd" clip-rule="evenodd" d="M11.2187 6.40287C10.8973 6.61714 9.86509 7.78743 9.58075 7.78743H9.47156C8.66595 7.78743 8.09317 3.50599 7.72437 3.23608C7.72437 4.40019 7.76145 5.47364 7.76145 6.65835C7.76145 7.71738 7.66255 9.2132 8.08699 9.82719C8.65359 10.6472 9.6982 8.97214 9.92484 8.60334C10.1226 8.2778 11.1672 6.60684 11.2208 6.40287" fill="#111212"/>
<path fill-rule="evenodd" clip-rule="evenodd" d="M8.9605 10.373C8.9605 10.9869 10.1102 11.7204 10.5738 11.9636C10.9838 12.1778 12.3045 13.072 12.6012 13.14C12.0222 12.2767 10.104 11.4176 12.1046 10.75C12.7104 10.5481 13.3326 10.408 13.9445 10.2225C14.2556 10.1278 15.5969 9.79193 15.77 9.68067H12.0181C11.1033 9.68067 8.95844 9.57971 8.95844 10.373" fill="#111212"/>
<path fill-rule="evenodd" clip-rule="evenodd" d="M5.75456 14.4527C6.07392 14.2384 7.1041 13.0681 7.39255 13.0681H7.50175C8.05187 13.0681 8.34032 14.6361 8.49897 15.1676C8.6535 15.6889 9.13974 17.1415 9.17683 17.5844H9.24894C9.24894 16.511 9.21186 15.2974 9.21186 14.1601C9.21186 13.1917 9.29221 11.5043 8.87602 10.9995C8.26615 10.264 7.28129 11.8669 7.04847 12.2502C6.84862 12.5798 5.80813 14.2384 5.7525 14.4506" fill="#111212"/>
<path fill-rule="evenodd" clip-rule="evenodd" d="M0 10.1547V10.7358C0 15.2253 3.97033 18.9463 8.52373 18.9711C13.0421 18.9958 17.0104 15.1553 17.0104 10.7007V10.2289C17.0104 5.71466 13.0813 1.92358 8.52373 1.92358C3.9662 1.92358 0 5.67757 0 10.1547ZM0.725249 10.4102C0.725249 8.09232 1.78016 6.1803 2.94632 5.01619C4.11249 3.85209 5.97094 2.68592 8.19614 2.68592H8.81219C11.0415 2.68592 12.9515 3.90566 14.0805 5.03474C15.2096 6.16382 16.2831 8.14589 16.2831 10.4473C16.2831 12.7487 15.2179 14.7226 14.062 15.8784C12.9412 16.9993 10.99 18.2087 8.7751 18.2087H8.30328C4.19697 18.2087 0.723189 14.6319 0.723189 10.4844V10.4123H0.725249V10.4102Z" fill="#111212"/>
<path fill-rule="evenodd" clip-rule="evenodd" d="M31.6451 5.74356C32.0449 5.74356 32.492 5.23053 32.492 4.80404V4.70926C32.492 4.17974 31.5689 4.052 30.9879 4.052C30.2956 4.052 27.7737 6.02583 26.8527 6.02583C26.5107 6.02583 26.5231 5.91457 26.1955 5.83834C26.214 6.68309 26.9351 7.22497 27.512 7.5299C27.4626 7.74006 27.4173 7.74624 27.4173 7.99966V8.18716C27.4173 8.94537 27.8953 9.67474 28.6391 9.69122C28.1755 10.0951 25.7546 11.3828 24.9737 11.3828C24.8068 11.3828 24.8192 11.2427 24.7862 11.1005C23.3068 11.4446 23.9085 13.0743 24.5987 13.0743C25.5341 13.0743 27.6501 11.2921 28.8286 11.1953L28.1178 11.9927L28.192 12.073L29.7208 11.0305C29.6651 12.3367 28.3362 12.8044 27.512 13.3566H26.76C26.5993 13.4638 26.385 13.5606 26.385 13.8264V14.0139C26.385 14.496 26.9022 14.9678 27.2298 15.143C27.1494 15.2954 26.9619 15.6127 26.76 15.6127C26.5066 15.6127 26.5004 15.5674 26.2903 15.5179C26.1295 15.6251 25.9153 15.7219 25.9153 15.9877C25.9153 16.5955 26.1337 17.3043 26.7621 17.3043H26.8569C27.3616 17.3043 27.6068 16.9684 27.7037 16.5522C28.2455 16.5399 28.2744 16.1443 28.4557 15.8002C28.7586 16.0227 29.2551 16.9272 29.5827 16.9272H30.4295C30.5078 16.5934 30.7118 16.27 30.7118 15.9877V15.7054C30.7118 15.351 30.4336 14.6258 30.3368 14.2014C30.4378 14.2281 33.3326 16.0104 32.4981 14.7659C32.7639 14.7432 32.8731 14.7659 32.8731 14.4836V14.2961C32.8731 13.8635 32.4981 14.0613 32.2159 13.6389L30.4213 13.7378L30.3409 13.5441C30.9116 12.687 31.0044 12.9548 31.8388 12.5119C31.8388 11.867 32.0263 12.0112 32.0263 11.5723C32.0263 11.3931 31.505 11.2901 31.3691 10.9151L30.1493 10.9748C30.6747 10.4556 33.1554 9.95701 33.1554 9.22146C33.1554 8.85265 32.8051 8.5642 32.4034 8.5642H31.9336C32.0655 8.06559 32.3086 8.46118 32.3086 7.81217V7.71739C32.3086 7.39598 31.6451 7.01069 31.3897 6.84998C30.8004 6.47499 30.7551 6.6357 30.1452 6.77787V7.15285C30.9941 7.37949 30.7386 9.07311 29.2984 9.40895L29.6796 7.90695L29.0923 7.26617C29.3705 6.75726 29.6754 6.3967 30.1473 6.12267C31.0971 5.56843 30.5325 5.74356 31.6493 5.74356M29.2737 14.257L29.2943 15.143C29.2943 15.3593 29.2283 15.4252 29.012 15.4252C28.5587 15.4252 28.3486 15.1326 28.1569 14.8421L29.2737 14.257Z" fill="#111212"/>
<path fill-rule="evenodd" clip-rule="evenodd" d="M49.5971 6.77783L48.4083 7.66997L48.4886 7.15694C47.8417 7.31971 47.0588 9.81069 47.0588 10.8182C47.0588 11.1602 47.2998 11.8525 47.6233 11.8525C47.8128 11.8525 48.0148 11.4363 48.0931 11.288C48.0416 11.0675 47.9983 11.0098 47.9983 10.7234C47.9983 10.3011 47.9509 8.77639 48.3753 8.46733C48.637 9.19052 50.3904 8.25511 49.8506 9.18022C49.5374 9.71797 48.9419 9.8416 48.468 10.1589L49.4117 11.1891L49.2963 11.4672L49.0326 11.4734C48.7462 11.4734 48.0931 11.7433 48.0931 12.0379C48.0931 12.382 48.2393 12.4933 48.3753 12.6952C47.4646 13.1773 45.9256 14.9513 44.8027 14.9513C44.6667 15.1553 44.5204 15.2645 44.5204 15.6086V15.7961C44.5204 16.8407 47.7181 15.3922 47.9983 15.3263C48.0065 15.6766 48.2002 16.3606 48.468 16.3606C48.6576 16.3606 49.0491 16.1257 49.0326 15.9835L48.9213 14.8586L50.5428 14.4032C50.5367 15.3242 50.3883 15.8331 50.3492 16.6429C50.2997 17.673 49.9742 17.7699 49.5971 18.3344C49.7434 18.4313 49.9391 18.6167 50.1617 18.6167C50.5573 18.6167 51.1156 17.6772 51.2351 17.2466C51.4391 16.5254 51.2887 15.7157 51.2887 15.1388V14.669C51.2887 13.8676 51.4741 13.4781 52.1499 13.3689C52.834 13.2577 53.483 13.2165 53.9198 13.4472C54.1238 13.3401 54.3895 13.2824 54.3895 12.9775C54.3895 12.2873 53.6581 11.9432 52.9803 11.9432C52.6506 11.9432 52.1087 12.4624 51.571 12.5077C52.1293 11.4528 51.948 12.1451 51.948 10.9089C51.948 10.5277 52.1994 10.5978 52.0819 9.93225C51.9975 9.45425 52.0139 9.41098 51.8903 8.99067C51.6637 8.22833 51.7585 7.63494 51.7585 6.9612V6.77371C51.7585 6.374 51.4659 6.11646 51.1012 6.11646C50.3492 6.11646 50.1575 6.62537 49.5971 6.77371M49.9742 10.915C50.1328 10.5215 50.821 10.7173 50.821 10.163C50.821 9.90135 50.4439 10.093 50.4439 9.69325C50.4439 9.36153 50.821 9.31414 50.821 9.12871C50.821 8.31693 50.547 8.38492 50.1637 7.81214H49.694C49.8176 7.64319 50.2585 7.37534 50.514 7.2991C50.889 7.18784 50.8869 7.77093 50.9137 8.09647C50.9858 8.94122 51.1053 9.60259 51.1053 10.538V10.6328C51.1053 11.1932 50.5593 10.6328 49.9783 10.915M48.7524 13.1691C49.1974 13.0496 49.1995 12.6993 49.9742 12.6993C50.0545 12.6993 50.2564 12.9012 50.2564 12.9816C50.2564 13.2124 49.1274 13.575 48.8472 13.6388L48.7524 13.1691ZM48.0848 13.5297C48.0848 14.0901 47.7304 14.0612 47.2359 14.2858C46.9063 14.4342 46.4303 14.6958 46.0863 14.7102L48.0848 13.5297Z" fill="#111212"/>
<path fill-rule="evenodd" clip-rule="evenodd" d="M68.1919 7.25772C67.9653 7.16706 68.2743 6.55101 68.2743 6.18221C68.2743 5.84225 67.7696 5.43018 67.3348 5.43018H66.8651C66.5313 5.43018 66.4962 5.75159 66.4901 6.08743L66.9887 6.42945L67.0628 8.06126C66.0327 8.7453 65.4475 8.69792 64.5162 9.19034C64.7037 9.47055 64.9922 9.8476 65.4558 9.8476H65.5505C66.2614 9.8476 66.4921 9.60242 67.0546 9.47261C66.9743 9.64156 66.3974 11.1168 66.3974 11.1642C66.3974 11.4361 66.6343 12.011 66.9619 12.011H67.1494C67.3286 12.011 67.8005 11.636 68.3712 11.636H68.466C69.0738 11.636 68.4495 13.6799 67.9962 13.6098L65.2806 13.1627L65.1755 13.2348C64.6584 13.2348 64.236 13.3585 64.236 13.8921C64.236 13.9539 64.5636 14.1332 64.6975 14.5597C64.7923 14.8625 64.8315 15.1324 64.9572 15.4291C65.1859 15.9689 65.5959 16.243 66.3046 16.243C67.3554 16.243 67.9282 15.7526 68.2785 15.0212C69.7351 15.3611 71.1527 16.618 72.6959 16.618C72.9905 16.618 72.9617 16.449 73.0709 16.243C72.1458 14.4958 71.5029 14.0981 69.0284 13.8942C69.0841 13.2142 69.593 13.0288 69.593 12.0151V11.8276C69.593 10.7274 68.672 10.7006 67.5244 10.7006C67.7077 10.3194 67.9138 9.12853 68.1095 8.93486C68.3423 8.70616 69.3107 8.41359 69.6857 8.16222L70.5284 8.2776C70.6458 8.08599 70.72 8.09217 70.72 7.87995C70.72 7.233 70.0257 6.94042 69.3107 6.94042C68.9934 6.94042 68.2743 7.29687 68.196 7.2639M66.5828 15.2046C65.6474 15.2046 65.2209 14.5102 64.8912 13.888L67.4605 14.6338L67.4296 14.7327C67.2483 15.0026 67.0319 15.2025 66.5828 15.2025" fill="#111212"/>
<path fill-rule="evenodd" clip-rule="evenodd" d="M63.2182 5.99477C63.2203 5.74753 62.8618 5.52295 62.5403 5.52295H61.8831C61.6667 5.52295 61.6008 5.58888 61.6008 5.80522V5.9C61.6008 6.70354 61.9779 7.07028 61.9779 7.87383V8.1561C61.9779 8.733 59.5878 9.61072 58.9697 9.75288C59.0892 10.2 59.629 10.3174 60.1915 10.3174H60.7561C61.3577 10.3174 61.471 10.1299 62.0726 10.1299L62.1901 12.2913C62.1921 12.6889 61.3865 13.1566 61.0795 13.3668C59.9793 14.1188 60.1524 13.5151 59.629 13.5151C59.4601 13.5151 59.252 14.0323 59.252 14.2671V14.8317C59.252 15.1964 59.3777 15.7712 59.7218 15.7712C60.1483 15.7712 60.2121 15.5714 60.4738 15.3942C61.3598 15.9875 61.7306 16.5068 63.0122 16.8035L63.1811 16.5974L63.2738 16.6098L62.9998 13.2328C62.971 12.7487 63.278 12.555 63.1481 12.0687C63.0328 11.6422 62.9174 11.5063 62.9174 10.9747V10.2226C62.9174 8.97406 64.6089 8.9411 64.6089 8.53108C64.6089 7.93564 63.7106 7.54829 63.1049 7.49678L63.2182 5.99477ZM62.2519 13.5996L62.3735 14.638L62.3529 14.9223L61.1537 14.7554L62.2519 13.5996Z" fill="#111212"/>
<path fill-rule="evenodd" clip-rule="evenodd" d="M35.5928 6.4027C35.7247 6.65406 35.9678 6.90748 35.9678 7.05995C35.9678 7.09292 35.3415 8.45894 35.2467 8.6897C34.9088 9.50355 34.5441 9.07293 34.1794 9.87853C33.9507 10.3833 33.3367 12.8743 33.3367 13.546V13.6408C33.3367 14.0137 33.5448 15.05 33.9013 15.05H33.996C34.2618 15.05 34.6265 14.572 34.7481 14.3928L34.6327 13.3605C34.5441 12.4808 36.6086 11.6669 37.3421 11.4403C38.6092 11.0529 40.1442 11.2652 40.8571 10.4431L40.1421 9.56124C39.0481 9.68486 37.9169 10.2927 36.9898 10.6161C36.0811 10.9334 34.7955 12.046 34.4658 12.1346C34.8284 7.78314 37.3235 9.15946 38.0364 8.0922C37.7129 7.47821 36.9424 6.40063 36.0626 6.40063H35.5928V6.4027Z" fill="#111212"/>
<path fill-rule="evenodd" clip-rule="evenodd" d="M49.5971 6.77777C49.7105 6.60882 49.7846 6.61294 49.7846 6.40278C49.7846 5.57452 48.6576 5.2428 48.6576 4.89872C48.6576 4.57318 48.9543 4.49076 49.2221 4.42895C49.2221 3.86853 48.3053 2.17285 47.9056 2.17285H47.6233C47.3843 2.17285 46.7188 3.4338 46.5334 3.71401C46.2985 4.06839 45.462 5.02028 45.462 5.36848C45.462 5.37878 45.5897 6.26268 45.6144 6.33891C45.736 6.71802 45.837 6.96526 46.3088 6.96526H46.4036C47.1515 6.96526 47.7902 6.66239 48.2826 6.40072C48.4083 6.4852 48.8822 6.87049 49.0347 6.87049C49.389 6.87049 49.2118 6.80867 49.5992 6.77571" fill="#111212"/>
<path fill-rule="evenodd" clip-rule="evenodd" d="M49.6919 2.83013V3.20512C49.6919 3.73051 50.209 4.40837 50.6355 4.52375L50.3491 5.27373C51.0084 5.42825 51.6018 5.07181 52.3147 4.98321C52.5846 4.95025 52.9967 4.78542 53.1904 4.63707C53.2645 4.57938 53.7322 3.86444 53.7322 3.86238C53.7322 2.57053 52.4383 3.23396 51.9624 2.34183C51.7646 1.9689 50.8003 0.666748 50.3471 0.666748H50.0648C49.9309 1.24159 49.6877 2.177 49.6877 2.82807" fill="#111212"/>
<path fill-rule="evenodd" clip-rule="evenodd" d="M37.0969 11.7598H37.0021C36.7507 11.7598 36.724 11.8957 36.6251 12.042C36.7919 12.2913 36.9506 12.6251 36.9073 13.0763L36.691 15.6106C36.6312 16.5233 36.8167 17.0261 36.4273 18.048C36.2418 18.5363 35.4403 19.3955 35.4033 19.8446L36.0585 19.7293C37.0598 18.2582 38.1044 19.0493 38.3269 16.1813C38.4093 15.1202 38.1992 11.7598 37.0948 11.7598" fill="#111212"/>
<path fill-rule="evenodd" clip-rule="evenodd" d="M28.8245 1.42083C28.8245 1.67838 29.012 1.72783 29.012 1.98538C29.012 2.8054 28.8884 3.21129 28.6371 3.77171C28.4372 4.21675 27.9922 5.13155 28.8493 4.2662C30.2936 2.8054 30.7427 4.157 31.9954 3.29783L32.1129 2.64469C31.7688 1.99362 31.7091 1.72165 30.8932 1.51561C30.4028 1.39199 29.4797 1.14062 28.9173 1.14062C28.8884 1.25188 28.8225 1.39611 28.8225 1.4229" fill="#111212"/>
<path d="M77.3564 9.23367C77.4429 9.48504 77.5975 9.63338 77.8282 9.67665C78.059 9.7158 78.3104 9.69519 78.5803 9.61278C78.8543 9.53036 79.1057 9.43559 79.3364 9.33051C79.5651 9.22543 79.8371 9.09975 80.1503 8.95346C80.4634 8.80718 80.6427 8.7124 80.6839 8.67119C80.7704 8.58466 80.8961 8.52491 81.063 8.48164C81.232 8.44249 81.3659 8.38892 81.471 8.32711C81.576 8.26324 81.6729 8.21173 81.7553 8.16846C81.8377 8.08605 81.9036 7.9377 81.9428 7.7296C81.986 7.52151 81.9757 7.32165 81.9119 7.1321C81.8501 6.94461 81.8068 6.73651 81.7883 6.50575C81.7677 6.27499 81.7553 6.09779 81.7553 5.97211C81.712 5.92884 81.712 5.83613 81.7553 5.68778C81.7986 5.54356 81.7986 5.44672 81.7553 5.40551C81.7553 5.36224 81.7244 5.27983 81.6626 5.15415C81.5987 5.02847 81.5369 4.92339 81.473 4.84097C81.4112 4.75856 81.3906 4.66172 81.4112 4.55664C81.4318 4.45156 81.4833 4.37945 81.5699 4.33618C81.6523 4.29703 81.7038 4.27437 81.7244 4.27437C81.745 4.27437 81.8068 4.28467 81.9119 4.30734C82.019 4.32588 82.0911 4.33618 82.1344 4.33618C82.1344 4.33618 82.1859 4.34648 82.2889 4.36709C82.394 4.38975 82.4682 4.40005 82.5094 4.40005C82.5526 4.40005 82.6145 4.42066 82.6969 4.46186C82.7834 4.50513 82.8432 4.54428 82.8864 4.58755C83.0121 4.7565 83.0533 4.95429 83.0121 5.18505C82.9688 5.41581 82.9482 5.66512 82.9482 5.93709C82.9482 6.20905 83.0307 6.45012 83.1996 6.66027C83.3644 6.70148 83.6076 6.76535 83.9207 6.84777C84.238 6.93018 84.5079 7.03526 84.7387 7.16094C84.9695 7.28663 85.1054 7.45352 85.1487 7.66573C85.1487 7.87383 85.0024 8.00775 84.7057 8.07369C84.4132 8.1355 84.0897 8.19937 83.7332 8.26118C83.3768 8.32505 83.1563 8.41983 83.0739 8.54551C83.0307 8.67119 83.0842 8.81542 83.2326 8.98437C83.3768 9.15126 83.453 9.29754 83.453 9.42323C83.453 9.96716 83.2223 10.4905 82.7607 10.9932C83.2223 11.1601 84.0567 11.3579 85.2723 11.5887C86.4879 11.8194 87.3863 12.1038 87.9735 12.4375C88.7255 12.9382 89.1685 13.3606 89.2921 13.6944C89.4178 13.9437 89.2509 14.1126 88.7914 14.195C88.6658 14.2383 88.5174 14.2156 88.3526 14.1332C88.1836 14.0467 88.0497 13.9643 87.9426 13.8819C87.8375 13.7994 87.683 13.6841 87.4728 13.5357C87.2647 13.3874 87.139 13.2947 87.0958 13.2514C86.1748 12.6683 85.2332 12.3119 84.2689 12.1841C84.1865 12.1841 84.0711 12.1738 83.9228 12.1512C83.7786 12.1326 83.6529 12.0996 83.5478 12.0564C83.4427 12.0172 83.3274 11.9946 83.2017 11.9946C83.076 11.9946 82.9915 12.0358 82.9503 12.1202C82.8679 12.1594 82.8246 12.2439 82.8246 12.3695V16.515C82.8679 16.5583 82.8885 16.5974 82.8885 16.6407C82.9297 16.8921 82.9297 17.1846 82.8885 17.5205C82.8452 17.8542 82.6804 18.0459 82.3837 18.085C82.3013 18.085 82.1962 18.0747 82.0705 18.052C81.9448 18.0335 81.8624 18.0005 81.8192 17.9573C81.778 17.9181 81.7141 17.8316 81.6317 17.708C81.5493 17.5823 81.506 17.5184 81.506 17.5184C80.9188 16.89 80.5232 16.2616 80.313 15.6352C80.313 15.6352 80.3027 15.5631 80.2801 15.4148C80.2574 15.2664 80.2286 15.1531 80.1853 15.0686C80.142 14.9862 80.1132 14.8811 80.0905 14.7555C80.0699 14.6298 80.0163 14.535 79.9319 14.4732C79.8495 14.4093 79.7876 14.3578 79.7444 14.3145C79.7011 14.2713 79.662 14.261 79.6187 14.2816C79.5754 14.3022 79.5363 14.3248 79.493 14.3454C79.4518 14.364 79.4106 14.3969 79.3673 14.4402C79.3261 14.4794 79.2849 14.5226 79.2416 14.5659C78.572 14.9409 78.0487 15.1923 77.6716 15.3179C76.9608 15.6105 76.5611 15.5054 76.4787 15.0048C77.274 14.7967 78.0714 14.3557 78.8667 13.6861C79.662 13.0165 80.3728 12.2603 81.0012 11.4238C81.0424 11.2982 81.1351 11.1725 81.2835 11.0468C81.4318 10.9211 81.5575 10.7872 81.6605 10.6388C81.7656 10.4905 81.8377 10.3545 81.881 10.2288C81.881 10.1464 81.8274 9.98983 81.7223 9.75907C81.6172 9.5283 81.5678 9.34905 81.5678 9.22337C81.232 9.34905 80.6468 9.65605 79.8082 10.1341C78.9717 10.6162 78.2815 10.8799 77.7376 10.9191C77.445 10.9191 77.0989 10.7851 76.7012 10.5111C76.3056 10.2371 76.2294 9.9342 76.4808 9.60042C76.524 9.47473 76.8166 9.34905 77.3605 9.22131M86.591 5.77844C86.5477 5.52913 86.4756 5.33958 86.3705 5.2139C86.2634 5.09028 86.0862 4.96459 85.8348 4.83891C85.7936 4.83891 85.7297 4.81625 85.6473 4.77504C85.5649 4.73589 85.4887 4.69263 85.4269 4.65142C85.365 4.60815 85.3012 4.55458 85.2394 4.49277C85.1755 4.43096 85.1467 4.35679 85.1467 4.27231C85.1034 4.10336 85.1652 3.99828 85.3341 3.95913C85.499 3.91587 85.6906 3.89526 85.8987 3.89526C86.3602 3.89526 86.8197 4.06421 87.2791 4.39799C87.8251 4.85952 87.7839 5.27777 87.1555 5.65482C87.0298 5.73723 86.8382 5.77844 86.591 5.77844ZM81.6296 16.3316C81.712 16.2884 81.7656 16.206 81.7883 16.0803C81.8068 15.9546 81.8171 15.8495 81.8171 15.7671V15.1407C81.7759 13.8015 81.8377 12.9011 82.0067 12.4396L81.1269 12.9403L80.1832 13.8839L80.4346 14.5103L81.6275 16.3316H81.6296Z" fill="#111212"/>
</g>
<defs>
<clipPath id="clip0_2959_771">
<rect width="89.3333" height="19.1779" fill="white" transform="translate(0 0.666748)"/>
</clipPath>
</defs>
</svg>
