<svg width="134" height="29" viewBox="0 0 134 29" fill="none" xmlns="http://www.w3.org/2000/svg">
<g clip-path="url(#clip0_3037_22562)">
<path fill-rule="evenodd" clip-rule="evenodd" d="M8.743 13.0855C8.743 13.9879 6.40964 14.3959 5.55356 14.6493C4.99417 14.8162 2.07051 15.5795 1.86035 15.7619H7.48824C8.79554 15.7619 12.0777 15.8453 12.0777 14.7234V14.6678C12.0777 13.6696 10.3594 12.7331 9.64235 12.2974C9.15714 12.0007 6.96594 10.6099 6.61671 10.5172C6.98139 11.0611 8.74609 12.5013 8.74609 13.0855" fill="#111212"/>
<path fill-rule="evenodd" clip-rule="evenodd" d="M16.828 8.60405C16.3459 8.92547 14.7975 10.6809 14.371 10.6809H14.2072C12.9988 10.6809 12.1396 4.25874 11.5864 3.85388C11.5864 5.60004 11.6421 7.21022 11.6421 8.98728C11.6421 10.5758 11.4937 12.8196 12.1304 13.7405C12.9803 14.9706 14.5472 12.458 14.8871 11.9048C15.1838 11.4165 16.7507 8.91002 16.8311 8.60405" fill="#111212"/>
<path fill-rule="evenodd" clip-rule="evenodd" d="M13.4406 14.5596C13.4406 15.4805 15.1651 16.5808 15.8605 16.9455C16.4755 17.2669 18.4566 18.6082 18.9016 18.7102C18.0331 17.4152 15.1558 16.1265 18.1568 15.1251C19.0654 14.8222 19.9987 14.6121 20.9166 14.3339C21.3833 14.1918 23.3952 13.688 23.6549 13.5211H18.027C16.6548 13.5211 13.4375 13.3697 13.4375 14.5596" fill="#111212"/>
<path fill-rule="evenodd" clip-rule="evenodd" d="M8.632 20.6789C9.11103 20.3575 10.6563 18.6021 11.089 18.6021H11.2528C12.078 18.6021 12.5106 20.954 12.7486 21.7513C12.9804 22.5332 13.7098 24.7121 13.7654 25.3766H13.8736C13.8736 23.7664 13.8179 21.946 13.8179 20.2401C13.8179 18.7875 13.9385 16.2563 13.3142 15.4992C12.3994 14.3958 10.9221 16.8003 10.5729 17.3751C10.2731 17.8696 8.71235 20.3575 8.62891 20.6758" fill="#111212"/>
<path fill-rule="evenodd" clip-rule="evenodd" d="M0 14.232V15.1035C0 21.8378 5.95549 27.4194 12.7856 27.4565C19.5632 27.4935 25.5156 21.7328 25.5156 15.051V14.3433C25.5156 7.57186 19.6219 1.88525 12.7856 1.88525C5.94931 1.88525 0 7.51623 0 14.232ZM1.08787 14.6152C1.08787 11.1384 2.67023 8.27033 4.41949 6.52417C6.16874 4.77801 8.95641 3.02876 12.2942 3.02876H13.2183C16.5623 3.02876 19.4272 4.85836 21.1208 6.55198C22.8144 8.2456 24.4246 11.2187 24.4246 14.6709C24.4246 18.123 22.8268 21.0837 21.093 22.8175C19.4117 24.4988 16.485 26.313 13.1626 26.313H12.4549C6.29545 26.313 1.08478 20.9478 1.08478 14.7265V14.6183H1.08787V14.6152Z" fill="#111212"/>
<path fill-rule="evenodd" clip-rule="evenodd" d="M47.4679 7.6151C48.0674 7.6151 48.7381 6.84555 48.7381 6.20581V6.06364C48.7381 5.26937 47.3535 5.07776 46.482 5.07776C45.4436 5.07776 41.6607 8.0385 40.2792 8.0385C39.7662 8.0385 39.7848 7.87161 39.2934 7.75726C39.3212 9.02439 40.4029 9.8372 41.2682 10.2946C41.1941 10.6098 41.1261 10.6191 41.1261 10.9992V11.2805C41.1261 12.4178 41.8431 13.5119 42.9588 13.5366C42.2634 14.1423 38.632 16.0739 37.4607 16.0739C37.2103 16.0739 37.2289 15.8638 37.1794 15.6505C34.9604 16.1666 35.8629 18.6113 36.8982 18.6113C38.3013 18.6113 41.4753 15.9379 43.2431 15.7927L42.1768 16.9887L42.2881 17.1093L44.5813 15.5454C44.4978 17.5049 42.5044 18.2064 41.2682 19.0347H40.1402C39.8991 19.1954 39.5777 19.3406 39.5777 19.7393V20.0206C39.5777 20.7437 40.3534 21.4515 40.8448 21.7142C40.7243 21.9429 40.443 22.4188 40.1402 22.4188C39.76 22.4188 39.7508 22.3508 39.4355 22.2767C39.1945 22.4374 38.873 22.5826 38.873 22.9813C38.873 23.893 39.2006 24.9562 40.1433 24.9562H40.2854C41.0426 24.9562 41.4104 24.4524 41.5556 23.8281C42.3685 23.8096 42.4117 23.2162 42.6837 22.7001C43.138 23.0338 43.8828 24.3906 44.3742 24.3906H45.6444C45.7619 23.8899 46.0678 23.4047 46.0678 22.9813V22.5579C46.0678 22.0263 45.6506 20.9385 45.5054 20.3018C45.6568 20.342 49.999 23.0153 48.7473 21.1486C49.146 21.1146 49.3098 21.1486 49.3098 20.7252V20.444C49.3098 19.7949 48.7474 20.0916 48.3239 19.4581L45.6321 19.6064L45.5115 19.3159C46.3676 18.0302 46.5067 18.432 47.7584 17.7676C47.7584 16.8002 48.0396 17.0165 48.0396 16.3583C48.0396 16.0894 47.2577 15.9349 47.0537 15.3724L45.2241 15.462C46.0122 14.6832 49.7332 13.9353 49.7332 12.8319C49.7332 12.2787 49.2078 11.8461 48.6052 11.8461H47.9005C48.0983 11.0981 48.463 11.6915 48.463 10.718V10.5758C48.463 10.0937 47.4679 9.51579 47.0846 9.27472C46.2007 8.71224 46.1327 8.95331 45.2179 9.16655V9.72903C46.4913 10.069 46.108 12.6094 43.9477 13.1132L44.5195 10.8602L43.6387 9.89901C44.0559 9.13565 44.5133 8.5948 45.221 8.18376C46.6458 7.3524 45.799 7.6151 47.474 7.6151M43.9106 20.3852L43.9415 21.7142C43.9415 22.0387 43.8427 22.1376 43.5181 22.1376C42.8382 22.1376 42.523 21.6987 42.2356 21.263L43.9106 20.3852Z" fill="#111212"/>
<path fill-rule="evenodd" clip-rule="evenodd" d="M74.3959 9.16663L72.6126 10.5048L72.7332 9.73529C71.7627 9.97944 70.5883 13.7159 70.5883 15.2272C70.5883 15.7402 70.9499 16.7786 71.4351 16.7786C71.7195 16.7786 72.0223 16.1544 72.1398 15.9318C72.0625 15.6011 71.9976 15.5146 71.9976 15.085C71.9976 14.4515 71.9265 12.1645 72.5632 11.7009C72.9557 12.7857 75.5857 11.3825 74.776 12.7702C74.3062 13.5768 73.4131 13.7623 72.7023 14.2382L74.1177 15.7835L73.9447 16.2007L73.5491 16.21C73.1195 16.21 72.1398 16.6148 72.1398 17.0568C72.1398 17.5729 72.3592 17.7398 72.5632 18.0427C71.1972 18.7659 68.8885 21.4268 67.2042 21.4268C67.0002 21.7328 66.7808 21.8966 66.7808 22.4127V22.694C66.7808 24.2609 71.5773 22.0882 71.9976 21.9893C72.01 22.5147 72.3005 23.5408 72.7023 23.5408C72.9866 23.5408 73.5738 23.1884 73.5491 22.9752L73.3822 21.2878L75.8144 20.6047C75.8052 21.9862 75.5826 22.7496 75.5239 23.9642C75.4497 25.5094 74.9614 25.6547 74.3959 26.5015C74.6153 26.6468 74.9089 26.9249 75.2427 26.9249C75.8361 26.9249 76.6736 25.5156 76.8529 24.8697C77.1588 23.788 76.9332 22.5734 76.9332 21.7081V21.0034C76.9332 19.8012 77.2114 19.2171 78.2251 19.0533C79.2511 18.8864 80.2247 18.8246 80.8798 19.1707C81.1858 19.01 81.5845 18.9235 81.5845 18.4661C81.5845 17.4308 80.4873 16.9146 79.4706 16.9146C78.9761 16.9146 78.1633 17.6934 77.3566 17.7614C78.1942 16.1791 77.9222 17.2175 77.9222 15.3632C77.9222 14.7914 78.2992 14.8965 78.1231 13.8983C77.9964 13.1812 78.0211 13.1163 77.8357 12.4859C77.4957 11.3424 77.6379 10.4523 77.6379 9.44168V9.16045C77.6379 8.56088 77.199 8.17456 76.652 8.17456C75.5239 8.17456 75.2365 8.93793 74.3959 9.16045M74.9614 15.3724C75.1994 14.7822 76.2317 15.0758 76.2317 14.2444C76.2317 13.8519 75.6661 14.1393 75.6661 13.5398C75.6661 13.0422 76.2317 12.9711 76.2317 12.6929C76.2317 11.4753 75.8206 11.5773 75.2458 10.7181H74.5411C74.7266 10.4647 75.3879 10.0629 75.7712 9.94853C76.3336 9.78165 76.3306 10.6563 76.3707 11.1446C76.4789 12.4117 76.6582 13.4038 76.6582 14.8069V14.949C76.6582 15.7897 75.8392 14.949 74.9676 15.3724M73.1287 18.7535C73.7963 18.5743 73.7994 18.0489 74.9614 18.0489C75.082 18.0489 75.3848 18.3517 75.3848 18.4723C75.3848 18.8184 73.6912 19.3623 73.2709 19.4582L73.1287 18.7535ZM72.1274 19.2944C72.1274 20.135 71.5958 20.0917 70.8541 20.4286C70.3596 20.6511 69.6457 21.0436 69.1296 21.0652L72.1274 19.2944Z" fill="#111212"/>
<path fill-rule="evenodd" clip-rule="evenodd" d="M102.288 9.8867C101.948 9.75072 102.411 8.82664 102.411 8.27344C102.411 7.7635 101.654 7.14539 101.002 7.14539H100.298C99.7969 7.14539 99.7443 7.62751 99.7351 8.13127L100.483 8.6443L100.594 11.092C99.049 12.1181 98.1713 12.047 96.7743 12.7856C97.0556 13.206 97.4882 13.7715 98.1836 13.7715H98.3258C99.392 13.7715 99.7382 13.4037 100.582 13.209C100.461 13.4625 99.596 15.6753 99.596 15.7464C99.596 16.1543 99.9514 17.0166 100.443 17.0166H100.724C100.993 17.0166 101.701 16.4541 102.557 16.4541H102.699C103.611 16.4541 102.674 19.5199 101.994 19.4149L97.9209 18.7442L97.7633 18.8524C96.9876 18.8524 96.354 19.0378 96.354 19.8383C96.354 19.931 96.8454 20.1999 97.0463 20.8396C97.1885 21.2939 97.2472 21.6988 97.4357 22.1438C97.7787 22.9535 98.3938 23.3646 99.4569 23.3646C101.033 23.3646 101.892 22.629 102.418 21.5319C104.603 22.0418 106.729 23.9271 109.044 23.9271C109.486 23.9271 109.442 23.6736 109.606 23.3646C108.219 20.7438 107.254 20.1473 103.543 19.8414C103.626 18.8215 104.389 18.5433 104.389 17.0228V16.7415C104.389 15.0912 103.008 15.051 101.287 15.051C101.562 14.4793 101.871 12.6929 102.164 12.4024C102.513 12.0594 103.966 11.6205 104.529 11.2435L105.793 11.4165C105.969 11.1291 106.08 11.1384 106.08 10.82C106.08 9.84962 105.038 9.41076 103.966 9.41076C103.49 9.41076 102.411 9.94542 102.294 9.89597M99.8741 21.8069C98.471 21.8069 97.8313 20.7654 97.3368 19.8321L101.191 20.9509L101.144 21.0992C100.872 21.5041 100.548 21.8039 99.8741 21.8039" fill="#111212"/>
<path fill-rule="evenodd" clip-rule="evenodd" d="M94.8273 7.99216C94.8304 7.62129 94.2926 7.28442 93.8105 7.28442H92.8246C92.5001 7.28442 92.4012 7.38332 92.4012 7.70783V7.84999C92.4012 9.05531 92.9668 9.60543 92.9668 10.8107V11.2341C92.9668 12.0995 89.3818 13.4161 88.4546 13.6293C88.6338 14.3 89.4436 14.4761 90.2873 14.4761H91.1341C92.0365 14.4761 92.2065 14.1949 93.109 14.1949L93.2851 17.4369C93.2882 18.0334 92.0798 18.7349 91.6193 19.0501C89.969 20.1782 90.2286 19.2727 89.4436 19.2727C89.1901 19.2727 88.878 20.0484 88.878 20.4007V21.2475C88.878 21.7946 89.0665 22.6568 89.5826 22.6568C90.2224 22.6568 90.3182 22.357 90.7107 22.0912C92.0396 22.9813 92.5959 23.7601 94.5182 24.2052L94.7717 23.8961L94.9108 23.9147L94.4997 18.8493C94.4564 18.123 94.9169 17.8325 94.7222 17.1031C94.5492 16.4634 94.3761 16.2594 94.3761 15.462V14.334C94.3761 12.4611 96.9134 12.4116 96.9134 11.7966C96.9134 10.9035 95.5659 10.3224 94.6573 10.2452L94.8273 7.99216ZM93.3778 19.3994L93.5602 20.957L93.5293 21.3835L91.7306 21.1332L93.3778 19.3994Z" fill="#111212"/>
<path fill-rule="evenodd" clip-rule="evenodd" d="M53.389 8.60404C53.5868 8.98109 53.9515 9.36123 53.9515 9.58993C53.9515 9.63938 53.012 11.6884 52.8698 12.0346C52.363 13.2553 51.8159 12.6094 51.2689 13.8178C50.9259 14.575 50.0049 18.3115 50.0049 19.319V19.4611C50.0049 20.0205 50.317 21.5751 50.8517 21.5751H50.9939C51.3925 21.5751 51.9396 20.8581 52.1219 20.5892L51.9488 19.0408C51.8159 17.7212 54.9127 16.5004 56.0129 16.1604C57.9136 15.5794 60.2161 15.8977 61.2854 14.6646L60.213 13.3419C58.5719 13.5273 56.8752 14.439 55.4844 14.9242C54.1215 15.4002 52.193 17.0691 51.6985 17.2019C52.2424 10.6747 55.9851 12.7392 57.0544 11.1383C56.5692 10.2173 55.4133 8.60095 54.0937 8.60095H53.389V8.60404Z" fill="#111212"/>
<path fill-rule="evenodd" clip-rule="evenodd" d="M74.3956 9.16665C74.5656 8.91323 74.6768 8.91941 74.6768 8.60417C74.6768 7.36177 72.9863 6.8642 72.9863 6.34807C72.9863 5.85977 73.4314 5.73615 73.8331 5.64343C73.8331 4.8028 72.4578 2.25928 71.8583 2.25928H71.4349C71.0764 2.25928 70.0781 4.15069 69.8 4.57101C69.4476 5.10258 68.1929 6.53042 68.1929 7.05272C68.1929 7.06817 68.3845 8.39402 68.4216 8.50837C68.6039 9.07703 68.7554 9.44789 69.4631 9.44789H69.6053C70.7271 9.44789 71.6852 8.99358 72.4238 8.60108C72.6124 8.7278 73.3232 9.30573 73.5519 9.30573C74.0835 9.30573 73.8177 9.21301 74.3987 9.16356" fill="#111212"/>
<path fill-rule="evenodd" clip-rule="evenodd" d="M74.5379 3.24508V3.80756C74.5379 4.59564 75.3136 5.61244 75.9534 5.78551L75.5238 6.91047C76.5128 7.14226 77.4029 6.60759 78.4722 6.4747C78.877 6.42525 79.4952 6.17801 79.7857 5.95549C79.8969 5.86895 80.5985 4.79653 80.5985 4.79344C80.5985 2.85567 78.6576 3.85082 77.9437 2.51262C77.647 1.95323 76.2006 0 75.5207 0H75.0973C74.8964 0.862263 74.5317 2.26537 74.5317 3.24199" fill="#111212"/>
<path fill-rule="evenodd" clip-rule="evenodd" d="M55.6454 16.6395H55.5032C55.1262 16.6395 55.086 16.8435 54.9377 17.0629C55.188 17.4369 55.426 17.9376 55.3611 18.6144L55.0366 22.4158C54.9469 23.7849 55.2251 24.539 54.641 26.0719C54.3628 26.8043 53.1606 28.0931 53.105 28.7668L54.0878 28.5938C55.5898 26.3871 57.1567 27.5739 57.4905 23.2718C57.6141 21.6802 57.2989 16.6395 55.6423 16.6395" fill="#111212"/>
<path fill-rule="evenodd" clip-rule="evenodd" d="M43.2367 1.13113C43.2367 1.51745 43.5179 1.59162 43.5179 1.97794C43.5179 3.20798 43.3325 3.81682 42.9554 4.65745C42.6556 5.325 41.9881 6.69721 43.2738 5.39918C45.4402 3.20798 46.114 5.23538 47.993 3.94662L48.1692 2.96692C47.6531 1.9903 47.5634 1.58235 46.3396 1.2733C45.604 1.08786 44.2195 0.710815 43.3757 0.710815C43.3325 0.877705 43.2336 1.09404 43.2336 1.13422" fill="#111212"/>
<path d="M116.035 12.8505C116.164 13.2276 116.396 13.4501 116.742 13.515C117.088 13.5737 117.466 13.5428 117.87 13.4192C118.281 13.2955 118.658 13.1534 119.005 12.9958C119.348 12.8381 119.756 12.6496 120.225 12.4302C120.695 12.2108 120.964 12.0686 121.026 12.0068C121.156 11.877 121.344 11.7874 121.594 11.7225C121.848 11.6637 122.049 11.5834 122.206 11.4907C122.364 11.3949 122.509 11.3176 122.633 11.2527C122.757 11.1291 122.855 10.9066 122.914 10.5944C122.979 10.2823 122.964 9.98248 122.868 9.69815C122.775 9.41691 122.71 9.10476 122.682 8.75862C122.651 8.41248 122.633 8.14669 122.633 7.95817C122.568 7.89327 122.568 7.75419 122.633 7.53167C122.698 7.31533 122.698 7.17008 122.633 7.10827C122.633 7.04337 122.587 6.91974 122.494 6.73122C122.398 6.5427 122.305 6.38508 122.209 6.26146C122.117 6.13784 122.086 5.99258 122.117 5.83496C122.148 5.67734 122.225 5.56917 122.355 5.50427C122.478 5.44555 122.556 5.41156 122.587 5.41156C122.617 5.41156 122.71 5.42701 122.868 5.46101C123.028 5.48882 123.137 5.50427 123.202 5.50427C123.202 5.50427 123.279 5.51973 123.433 5.55063C123.591 5.58463 123.702 5.60008 123.764 5.60008C123.829 5.60008 123.922 5.63099 124.045 5.6928C124.175 5.7577 124.265 5.81642 124.33 5.88132C124.518 6.13475 124.58 6.43144 124.518 6.77758C124.453 7.12372 124.422 7.49768 124.422 7.90563C124.422 8.31358 124.546 8.67518 124.799 8.99041C125.047 9.05222 125.411 9.14803 125.881 9.27165C126.357 9.39527 126.762 9.55289 127.108 9.74142C127.454 9.92994 127.658 10.1803 127.723 10.4986C127.723 10.8107 127.504 11.0116 127.059 11.1105C126.62 11.2032 126.134 11.2991 125.6 11.3918C125.065 11.4876 124.734 11.6297 124.611 11.8183C124.546 12.0068 124.626 12.2231 124.849 12.4766C125.065 12.7269 125.18 12.9463 125.18 13.1348C125.18 13.9507 124.833 14.7357 124.141 15.4898C124.833 15.7402 126.085 16.0369 127.908 16.383C129.732 16.7291 131.079 17.1556 131.96 17.6563C133.088 18.4073 133.753 19.0409 133.938 19.5415C134.127 19.9155 133.876 20.1689 133.187 20.2926C132.999 20.3575 132.776 20.3235 132.529 20.1998C132.275 20.07 132.075 19.9464 131.914 19.8228C131.756 19.6992 131.524 19.5261 131.209 19.3036C130.897 19.0811 130.709 18.942 130.644 18.8771C129.262 18.0025 127.85 17.4678 126.403 17.2762C126.28 17.2762 126.107 17.2607 125.884 17.2267C125.668 17.1989 125.479 17.1495 125.322 17.0846C125.164 17.0258 124.991 16.9918 124.802 16.9918C124.614 16.9918 124.487 17.0537 124.425 17.1804C124.302 17.2391 124.237 17.3658 124.237 17.5543V23.7725C124.302 23.8374 124.333 23.8961 124.333 23.961C124.395 24.3381 124.395 24.7769 124.333 25.2807C124.268 25.7814 124.021 26.0688 123.576 26.1275C123.452 26.1275 123.294 26.1121 123.106 26.0781C122.917 26.0502 122.794 26.0008 122.729 25.9359C122.667 25.8772 122.571 25.7474 122.447 25.5619C122.324 25.3734 122.259 25.2776 122.259 25.2776C121.378 24.335 120.785 23.3924 120.47 22.4528C120.47 22.4528 120.454 22.3447 120.42 22.1222C120.386 21.8996 120.343 21.7297 120.278 21.6029C120.213 21.4793 120.17 21.3217 120.136 21.1332C120.105 20.9447 120.024 20.8025 119.898 20.7098C119.774 20.614 119.681 20.5367 119.617 20.4718C119.552 20.4069 119.493 20.3914 119.428 20.4224C119.363 20.4533 119.304 20.4873 119.239 20.5182C119.178 20.546 119.116 20.5954 119.051 20.6603C118.989 20.719 118.927 20.7839 118.862 20.8488C117.858 21.4113 117.073 21.7884 116.507 21.9769C115.441 22.4158 114.842 22.2581 114.718 21.5071C115.911 21.195 117.107 20.5336 118.3 19.5292C119.493 18.5248 120.559 17.3905 121.502 16.1358C121.564 15.9472 121.703 15.7587 121.925 15.5702C122.148 15.3817 122.336 15.1808 122.491 14.9583C122.648 14.7357 122.757 14.5318 122.821 14.3432C122.821 14.2196 122.741 13.9847 122.583 13.6386C122.426 13.2925 122.352 13.0236 122.352 12.8351C121.848 13.0236 120.97 13.4841 119.712 14.2011C118.458 14.9243 117.422 15.3199 116.606 15.3786C116.167 15.3786 115.648 15.1777 115.052 14.7666C114.458 14.3556 114.344 13.9013 114.721 13.4006C114.786 13.2121 115.225 13.0236 116.041 12.832M129.886 7.66766C129.822 7.2937 129.713 7.00937 129.556 6.82085C129.395 6.63541 129.129 6.44689 128.752 6.25837C128.69 6.25837 128.595 6.22437 128.471 6.16256C128.347 6.10384 128.233 6.03894 128.14 5.97713C128.048 5.91223 127.952 5.83187 127.859 5.73915C127.763 5.64644 127.72 5.53518 127.72 5.40847C127.655 5.15504 127.748 4.99742 128.001 4.9387C128.248 4.8738 128.536 4.8429 128.848 4.8429C129.54 4.8429 130.229 5.09632 130.919 5.59699C131.738 6.28927 131.676 6.91665 130.733 7.48222C130.545 7.60585 130.257 7.66766 129.886 7.66766ZM122.444 23.4974C122.568 23.4325 122.648 23.3089 122.682 23.1204C122.71 22.9319 122.726 22.7743 122.726 22.6506V21.7111C122.664 19.7023 122.757 18.3517 123.01 17.6594L121.69 18.4104L120.275 19.8259L120.652 20.7654L122.441 23.4974H122.444Z" fill="#111212"/>
</g>
<defs>
<clipPath id="clip0_3037_22562">
<rect width="134" height="28.7668" fill="white"/>
</clipPath>
</defs>
</svg>
