<svg width="1384" height="150" viewBox="0 0 1384 150" fill="none" xmlns="http://www.w3.org/2000/svg">
<rect width="1384" height="46" fill="#F4F4F4"/>
<path d="M17.218 16.996H23.966V18.284H22.678V19.978H24.274V21.322H22.678V24.248H21.278V21.322H19.822C19.654 22.694 19.136 23.716 18.296 24.416L17.19 23.45C17.834 22.96 18.226 22.246 18.394 21.322H16.854V19.978H18.478V18.284H17.218V16.996ZM19.892 18.284V19.978H21.278V18.284H19.892ZM24.806 17.458H26.192V22.246H24.806V17.458ZM17.582 25.34H22.328V24.402H23.784V25.34H28.432V26.684H23.784V27.846H29.202V29.176H16.798V27.846H22.328V26.684H17.582V25.34ZM27.41 24.43H25.534L25.212 23.058C25.814 23.114 26.388 23.156 26.92 23.156C27.186 23.156 27.326 22.932 27.326 22.484V16.688H28.74V22.834C28.74 23.898 28.292 24.43 27.41 24.43ZM32.674 16.884H41.326V21.014H32.674V16.884ZM39.842 19.712V18.2H34.158V19.712H39.842ZM33.64 23.24H30.602V21.826H43.384V23.24H35.124L34.746 24.458H41.508C41.396 26.866 41.172 28.294 40.808 28.742C40.444 29.176 39.758 29.4 38.722 29.4C38.036 29.4 37.42 29.358 36.874 29.288L36.398 27.958C37.154 28.028 37.812 28.07 38.4 28.07C39.086 28.07 39.506 27.93 39.674 27.678C39.828 27.412 39.94 26.782 40.01 25.774H32.996L33.64 23.24Z" fill="#1D1C23"/>
<path d="M145.12 17.576H150.208C151.376 17.576 152.304 17.832 152.976 18.36C153.68 18.936 154.048 19.768 154.048 20.856C154.048 21.448 153.888 21.976 153.568 22.44C153.216 22.952 152.72 23.288 152.112 23.448V23.48C153.104 23.704 153.664 24.36 153.792 25.48L153.984 27.32C154.048 28.024 154.288 28.584 154.672 29H152.64C152.368 28.648 152.208 28.152 152.144 27.512L152 26.104C151.936 25.48 151.744 25.032 151.424 24.76C151.088 24.472 150.592 24.344 149.952 24.344H146.992V29H145.12V17.576ZM146.992 19.176V22.744H149.952C150.688 22.744 151.248 22.584 151.632 22.28C151.984 21.96 152.16 21.512 152.16 20.936C152.16 20.312 151.984 19.864 151.632 19.592C151.28 19.304 150.72 19.176 149.952 19.176H146.992ZM160.308 17.352C161.652 17.352 162.708 17.624 163.46 18.184C164.26 18.776 164.724 19.704 164.836 20.952H162.98C162.82 20.248 162.516 19.736 162.1 19.432C161.684 19.112 161.044 18.968 160.212 18.968C159.492 18.968 158.948 19.064 158.564 19.272C158.084 19.512 157.86 19.912 157.86 20.456C157.86 20.936 158.116 21.336 158.66 21.624C158.9 21.752 159.556 21.992 160.612 22.328C162.164 22.808 163.156 23.192 163.604 23.448C164.596 24.04 165.092 24.856 165.092 25.912C165.092 26.936 164.692 27.752 163.892 28.344C163.092 28.92 161.956 29.224 160.5 29.224C159.092 29.224 157.988 28.952 157.204 28.408C156.244 27.736 155.716 26.68 155.636 25.224H157.492C157.62 26.088 157.924 26.712 158.42 27.08C158.868 27.4 159.556 27.576 160.5 27.576C161.332 27.576 162.004 27.432 162.484 27.16C162.964 26.872 163.22 26.504 163.22 26.024C163.22 25.416 162.852 24.936 162.148 24.584C161.924 24.472 161.188 24.216 159.924 23.832C158.516 23.384 157.636 23.064 157.3 22.872C156.42 22.344 155.988 21.576 155.988 20.568C155.988 19.56 156.404 18.76 157.268 18.184C158.068 17.624 159.076 17.352 160.308 17.352ZM169.29 17.576H170.698V29H168.826V19.832C168.138 20.456 167.274 20.92 166.218 21.224V19.368C166.73 19.24 167.274 19.016 167.85 18.696C168.426 18.344 168.906 17.976 169.29 17.576ZM176.941 17.352C178.269 17.352 179.309 17.896 180.061 19.016C180.765 20.072 181.117 21.496 181.117 23.288C181.117 25.08 180.765 26.504 180.061 27.56C179.309 28.664 178.269 29.224 176.941 29.224C175.597 29.224 174.557 28.664 173.821 27.56C173.117 26.504 172.765 25.08 172.765 23.288C172.765 21.496 173.117 20.072 173.821 19.016C174.557 17.896 175.597 17.352 176.941 17.352ZM176.941 18.936C176.029 18.936 175.389 19.432 175.021 20.456C174.765 21.144 174.637 22.088 174.637 23.288C174.637 24.472 174.765 25.416 175.021 26.12C175.389 27.128 176.029 27.64 176.941 27.64C177.837 27.64 178.477 27.128 178.861 26.12C179.117 25.416 179.245 24.472 179.245 23.288C179.245 22.088 179.117 21.144 178.861 20.456C178.477 19.432 177.837 18.936 176.941 18.936ZM186.534 17.352C187.862 17.352 188.902 17.896 189.654 19.016C190.358 20.072 190.71 21.496 190.71 23.288C190.71 25.08 190.358 26.504 189.654 27.56C188.902 28.664 187.862 29.224 186.534 29.224C185.19 29.224 184.15 28.664 183.414 27.56C182.71 26.504 182.358 25.08 182.358 23.288C182.358 21.496 182.71 20.072 183.414 19.016C184.15 17.896 185.19 17.352 186.534 17.352ZM186.534 18.936C185.622 18.936 184.982 19.432 184.614 20.456C184.358 21.144 184.23 22.088 184.23 23.288C184.23 24.472 184.358 25.416 184.614 26.12C184.982 27.128 185.622 27.64 186.534 27.64C187.43 27.64 188.07 27.128 188.454 26.12C188.71 25.416 188.838 24.472 188.838 23.288C188.838 22.088 188.71 21.144 188.454 20.456C188.07 19.432 187.43 18.936 186.534 18.936ZM197.456 24.104H205.536V25.608H197.456V24.104ZM212.792 17.576H214.984L218.872 26.536H218.936L222.808 17.576H225V29H223.128V21.128H223.064L219.704 29H218.088L214.728 21.128H214.664V29H212.792V17.576ZM231.085 17.352C233.325 17.352 234.589 18.392 234.877 20.472H233.053C232.829 19.416 232.157 18.888 231.069 18.888C230.301 18.888 229.693 19.256 229.245 20.008C228.797 20.712 228.589 21.592 228.589 22.648V22.792H228.669C228.989 22.312 229.389 21.976 229.869 21.752C230.317 21.528 230.829 21.432 231.405 21.432C232.525 21.432 233.421 21.784 234.093 22.504C234.765 23.224 235.101 24.152 235.101 25.272C235.101 26.424 234.701 27.368 233.933 28.104C233.165 28.84 232.205 29.224 231.069 29.224C229.661 29.224 228.589 28.712 227.853 27.704C227.117 26.712 226.765 25.352 226.765 23.608C226.765 21.736 227.149 20.232 227.933 19.08C228.701 17.928 229.757 17.352 231.085 17.352ZM231.005 22.952C230.301 22.952 229.757 23.16 229.373 23.592C228.973 24.008 228.781 24.6 228.781 25.336C228.781 26.056 228.989 26.632 229.405 27.048C229.821 27.464 230.349 27.672 231.005 27.672C231.677 27.672 232.205 27.448 232.621 27C233.037 26.552 233.245 25.976 233.245 25.272C233.245 24.568 233.037 24.008 232.653 23.592C232.237 23.16 231.693 22.952 231.005 22.952Z" fill="#1D1C23"/>
<path d="M576.454 17.576H581.542C582.71 17.576 583.638 17.832 584.31 18.36C585.014 18.936 585.382 19.768 585.382 20.856C585.382 21.448 585.222 21.976 584.902 22.44C584.55 22.952 584.054 23.288 583.446 23.448V23.48C584.438 23.704 584.998 24.36 585.126 25.48L585.318 27.32C585.382 28.024 585.622 28.584 586.006 29H583.974C583.702 28.648 583.542 28.152 583.478 27.512L583.334 26.104C583.27 25.48 583.078 25.032 582.758 24.76C582.422 24.472 581.926 24.344 581.286 24.344H578.326V29H576.454V17.576ZM578.326 19.176V22.744H581.286C582.022 22.744 582.582 22.584 582.966 22.28C583.318 21.96 583.494 21.512 583.494 20.936C583.494 20.312 583.318 19.864 582.966 19.592C582.614 19.304 582.054 19.176 581.286 19.176H578.326ZM591.642 17.352C592.986 17.352 594.042 17.624 594.794 18.184C595.594 18.776 596.058 19.704 596.17 20.952H594.314C594.154 20.248 593.85 19.736 593.434 19.432C593.018 19.112 592.378 18.968 591.546 18.968C590.826 18.968 590.282 19.064 589.898 19.272C589.418 19.512 589.194 19.912 589.194 20.456C589.194 20.936 589.45 21.336 589.994 21.624C590.234 21.752 590.89 21.992 591.946 22.328C593.498 22.808 594.49 23.192 594.938 23.448C595.93 24.04 596.426 24.856 596.426 25.912C596.426 26.936 596.026 27.752 595.226 28.344C594.426 28.92 593.29 29.224 591.834 29.224C590.426 29.224 589.322 28.952 588.538 28.408C587.578 27.736 587.05 26.68 586.97 25.224H588.826C588.954 26.088 589.258 26.712 589.754 27.08C590.202 27.4 590.89 27.576 591.834 27.576C592.666 27.576 593.338 27.432 593.818 27.16C594.298 26.872 594.554 26.504 594.554 26.024C594.554 25.416 594.186 24.936 593.482 24.584C593.258 24.472 592.522 24.216 591.258 23.832C589.85 23.384 588.97 23.064 588.634 22.872C587.754 22.344 587.322 21.576 587.322 20.568C587.322 19.56 587.738 18.76 588.602 18.184C589.402 17.624 590.41 17.352 591.642 17.352ZM600.624 17.576H602.032V29H600.16V19.832C599.472 20.456 598.608 20.92 597.552 21.224V19.368C598.064 19.24 598.608 19.016 599.184 18.696C599.76 18.344 600.24 17.976 600.624 17.576ZM608.275 17.352C609.603 17.352 610.643 17.896 611.395 19.016C612.099 20.072 612.451 21.496 612.451 23.288C612.451 25.08 612.099 26.504 611.395 27.56C610.643 28.664 609.603 29.224 608.275 29.224C606.931 29.224 605.891 28.664 605.155 27.56C604.451 26.504 604.099 25.08 604.099 23.288C604.099 21.496 604.451 20.072 605.155 19.016C605.891 17.896 606.931 17.352 608.275 17.352ZM608.275 18.936C607.363 18.936 606.723 19.432 606.355 20.456C606.099 21.144 605.971 22.088 605.971 23.288C605.971 24.472 606.099 25.416 606.355 26.12C606.723 27.128 607.363 27.64 608.275 27.64C609.171 27.64 609.811 27.128 610.195 26.12C610.451 25.416 610.579 24.472 610.579 23.288C610.579 22.088 610.451 21.144 610.195 20.456C609.811 19.432 609.171 18.936 608.275 18.936ZM617.868 17.352C619.196 17.352 620.236 17.896 620.988 19.016C621.692 20.072 622.044 21.496 622.044 23.288C622.044 25.08 621.692 26.504 620.988 27.56C620.236 28.664 619.196 29.224 617.868 29.224C616.524 29.224 615.484 28.664 614.748 27.56C614.044 26.504 613.692 25.08 613.692 23.288C613.692 21.496 614.044 20.072 614.748 19.016C615.484 17.896 616.524 17.352 617.868 17.352ZM617.868 18.936C616.956 18.936 616.316 19.432 615.948 20.456C615.692 21.144 615.564 22.088 615.564 23.288C615.564 24.472 615.692 25.416 615.948 26.12C616.316 27.128 616.956 27.64 617.868 27.64C618.764 27.64 619.404 27.128 619.788 26.12C620.044 25.416 620.172 24.472 620.172 23.288C620.172 22.088 620.044 21.144 619.788 20.456C619.404 19.432 618.764 18.936 617.868 18.936ZM628.79 24.104H636.87V25.608H628.79V24.104ZM644.126 17.576H646.318L650.206 26.536H650.27L654.142 17.576H656.334V29H654.462V21.128H654.398L651.038 29H649.422L646.062 21.128H645.998V29H644.126V17.576ZM661.171 17.576H662.579V29H660.707V19.832C660.019 20.456 659.155 20.92 658.099 21.224V19.368C658.611 19.24 659.155 19.016 659.731 18.696C660.307 18.344 660.787 17.976 661.171 17.576ZM668.997 17.352C670.101 17.352 671.013 17.672 671.733 18.312C672.437 18.952 672.789 19.768 672.789 20.792C672.789 21.784 672.405 22.68 671.669 23.496C671.221 23.976 670.421 24.584 669.301 25.336C668.133 26.104 667.429 26.776 667.173 27.352H672.805V29H664.837C664.837 27.832 665.205 26.824 665.973 25.96C666.389 25.48 667.269 24.776 668.597 23.864C669.333 23.352 669.845 22.92 670.165 22.584C670.661 22.024 670.917 21.416 670.917 20.776C670.917 20.152 670.741 19.688 670.421 19.384C670.085 19.08 669.589 18.936 668.933 18.936C668.229 18.936 667.701 19.176 667.349 19.656C666.997 20.104 666.805 20.792 666.773 21.688H664.901C664.917 20.408 665.285 19.384 666.021 18.6C666.773 17.768 667.765 17.352 668.997 17.352Z" fill="#1D1C23"/>
<path d="M1007.79 17.576H1012.87C1014.04 17.576 1014.97 17.832 1015.64 18.36C1016.35 18.936 1016.71 19.768 1016.71 20.856C1016.71 21.448 1016.55 21.976 1016.23 22.44C1015.88 22.952 1015.39 23.288 1014.78 23.448V23.48C1015.77 23.704 1016.33 24.36 1016.46 25.48L1016.65 27.32C1016.71 28.024 1016.95 28.584 1017.34 29H1015.31C1015.03 28.648 1014.87 28.152 1014.81 27.512L1014.67 26.104C1014.6 25.48 1014.41 25.032 1014.09 24.76C1013.75 24.472 1013.26 24.344 1012.62 24.344H1009.66V29H1007.79V17.576ZM1009.66 19.176V22.744H1012.62C1013.35 22.744 1013.91 22.584 1014.3 22.28C1014.65 21.96 1014.83 21.512 1014.83 20.936C1014.83 20.312 1014.65 19.864 1014.3 19.592C1013.95 19.304 1013.39 19.176 1012.62 19.176H1009.66ZM1022.97 17.352C1024.32 17.352 1025.37 17.624 1026.13 18.184C1026.93 18.776 1027.39 19.704 1027.5 20.952H1025.65C1025.49 20.248 1025.18 19.736 1024.77 19.432C1024.35 19.112 1023.71 18.968 1022.88 18.968C1022.16 18.968 1021.61 19.064 1021.23 19.272C1020.75 19.512 1020.53 19.912 1020.53 20.456C1020.53 20.936 1020.78 21.336 1021.33 21.624C1021.57 21.752 1022.22 21.992 1023.28 22.328C1024.83 22.808 1025.82 23.192 1026.27 23.448C1027.26 24.04 1027.76 24.856 1027.76 25.912C1027.76 26.936 1027.36 27.752 1026.56 28.344C1025.76 28.92 1024.62 29.224 1023.17 29.224C1021.76 29.224 1020.65 28.952 1019.87 28.408C1018.91 27.736 1018.38 26.68 1018.3 25.224H1020.16C1020.29 26.088 1020.59 26.712 1021.09 27.08C1021.53 27.4 1022.22 27.576 1023.17 27.576C1024 27.576 1024.67 27.432 1025.15 27.16C1025.63 26.872 1025.89 26.504 1025.89 26.024C1025.89 25.416 1025.52 24.936 1024.81 24.584C1024.59 24.472 1023.85 24.216 1022.59 23.832C1021.18 23.384 1020.3 23.064 1019.97 22.872C1019.09 22.344 1018.65 21.576 1018.65 20.568C1018.65 19.56 1019.07 18.76 1019.93 18.184C1020.73 17.624 1021.74 17.352 1022.97 17.352ZM1031.96 17.576H1033.36V29H1031.49V19.832C1030.8 20.456 1029.94 20.92 1028.88 21.224V19.368C1029.4 19.24 1029.94 19.016 1030.52 18.696C1031.09 18.344 1031.57 17.976 1031.96 17.576ZM1039.61 17.352C1040.93 17.352 1041.97 17.896 1042.73 19.016C1043.43 20.072 1043.78 21.496 1043.78 23.288C1043.78 25.08 1043.43 26.504 1042.73 27.56C1041.97 28.664 1040.93 29.224 1039.61 29.224C1038.26 29.224 1037.22 28.664 1036.49 27.56C1035.78 26.504 1035.43 25.08 1035.43 23.288C1035.43 21.496 1035.78 20.072 1036.49 19.016C1037.22 17.896 1038.26 17.352 1039.61 17.352ZM1039.61 18.936C1038.69 18.936 1038.05 19.432 1037.69 20.456C1037.43 21.144 1037.3 22.088 1037.3 23.288C1037.3 24.472 1037.43 25.416 1037.69 26.12C1038.05 27.128 1038.69 27.64 1039.61 27.64C1040.5 27.64 1041.14 27.128 1041.53 26.12C1041.78 25.416 1041.91 24.472 1041.91 23.288C1041.91 22.088 1041.78 21.144 1041.53 20.456C1041.14 19.432 1040.5 18.936 1039.61 18.936ZM1049.2 17.352C1050.53 17.352 1051.57 17.896 1052.32 19.016C1053.02 20.072 1053.38 21.496 1053.38 23.288C1053.38 25.08 1053.02 26.504 1052.32 27.56C1051.57 28.664 1050.53 29.224 1049.2 29.224C1047.86 29.224 1046.82 28.664 1046.08 27.56C1045.38 26.504 1045.02 25.08 1045.02 23.288C1045.02 21.496 1045.38 20.072 1046.08 19.016C1046.82 17.896 1047.86 17.352 1049.2 17.352ZM1049.2 18.936C1048.29 18.936 1047.65 19.432 1047.28 20.456C1047.02 21.144 1046.9 22.088 1046.9 23.288C1046.9 24.472 1047.02 25.416 1047.28 26.12C1047.65 27.128 1048.29 27.64 1049.2 27.64C1050.1 27.64 1050.74 27.128 1051.12 26.12C1051.38 25.416 1051.5 24.472 1051.5 23.288C1051.5 22.088 1051.38 21.144 1051.12 20.456C1050.74 19.432 1050.1 18.936 1049.2 18.936ZM1060.12 24.104H1068.2V25.608H1060.12V24.104ZM1075.46 17.576H1077.65L1081.54 26.536H1081.6L1085.47 17.576H1087.67V29H1085.79V21.128H1085.73L1082.37 29H1080.75L1077.39 21.128H1077.33V29H1075.46V17.576ZM1092.5 17.576H1093.91V29H1092.04V19.832C1091.35 20.456 1090.49 20.92 1089.43 21.224V19.368C1089.94 19.24 1090.49 19.016 1091.06 18.696C1091.64 18.344 1092.12 17.976 1092.5 17.576ZM1100.31 17.352C1102.55 17.352 1103.82 18.392 1104.11 20.472H1102.28C1102.06 19.416 1101.39 18.888 1100.3 18.888C1099.53 18.888 1098.92 19.256 1098.47 20.008C1098.03 20.712 1097.82 21.592 1097.82 22.648V22.792H1097.9C1098.22 22.312 1098.62 21.976 1099.1 21.752C1099.55 21.528 1100.06 21.432 1100.63 21.432C1101.75 21.432 1102.65 21.784 1103.32 22.504C1103.99 23.224 1104.33 24.152 1104.33 25.272C1104.33 26.424 1103.93 27.368 1103.16 28.104C1102.39 28.84 1101.43 29.224 1100.3 29.224C1098.89 29.224 1097.82 28.712 1097.08 27.704C1096.35 26.712 1095.99 25.352 1095.99 23.608C1095.99 21.736 1096.38 20.232 1097.16 19.08C1097.93 17.928 1098.99 17.352 1100.31 17.352ZM1100.23 22.952C1099.53 22.952 1098.99 23.16 1098.6 23.592C1098.2 24.008 1098.01 24.6 1098.01 25.336C1098.01 26.056 1098.22 26.632 1098.63 27.048C1099.05 27.464 1099.58 27.672 1100.23 27.672C1100.91 27.672 1101.43 27.448 1101.85 27C1102.27 26.552 1102.47 25.976 1102.47 25.272C1102.47 24.568 1102.27 24.008 1101.88 23.592C1101.47 23.16 1100.92 22.952 1100.23 22.952Z" fill="#1D1C23"/>
<path d="M22.034 66.444H24.554C24.428 66.15 24.302 65.87 24.176 65.618L25.646 65.366C25.758 65.688 25.856 66.052 25.968 66.444H28.782V67.648H27.746C27.648 68.04 27.536 68.404 27.396 68.768H29.23V69.986H21.614V68.768H23.476C23.336 68.362 23.21 67.984 23.084 67.648H22.034V66.444ZM26.01 68.768C26.164 68.404 26.29 68.04 26.402 67.648H24.47C24.568 67.998 24.666 68.376 24.778 68.768H26.01ZM22.314 70.518H28.446V75.222H27.046V76.608C27.046 76.944 27.2 77.112 27.522 77.112H27.83C27.998 77.112 28.138 77.042 28.222 76.93C28.32 76.79 28.39 76.356 28.418 75.656L29.594 76.02C29.482 77.14 29.328 77.798 29.104 78.008C28.866 78.204 28.516 78.302 28.054 78.302H27.144C26.164 78.302 25.674 77.826 25.674 76.902V75.222H24.848C24.68 75.992 24.386 76.636 23.98 77.14C23.504 77.728 22.65 78.204 21.432 78.554L20.928 77.336C21.824 77.098 22.482 76.762 22.888 76.342C23.154 76.034 23.35 75.67 23.49 75.222H22.314V70.518ZM27.13 74.074V73.388H23.644V74.074H27.13ZM23.644 72.338H27.13V71.652H23.644V72.338ZM18.058 65.478L19.458 65.786C19.36 66.178 19.262 66.57 19.164 66.934H21.278V68.32H18.73C18.548 68.838 18.352 69.328 18.142 69.776H21.166V71.078H19.864V72.394H21.488V73.738H19.864V76.398C20.242 76.202 20.62 75.964 20.998 75.684L21.25 76.93C20.466 77.42 19.57 77.826 18.562 78.134L18.002 76.944C18.296 76.832 18.45 76.636 18.45 76.384V73.738H16.854V72.394H18.45V71.078H17.876V70.322C17.778 70.49 17.694 70.658 17.61 70.812L16.406 70.056C17.19 68.628 17.736 67.102 18.058 65.478ZM30.924 71.876H36.958C37.126 71.204 37.224 70.49 37.266 69.72V65.52H38.736V69.72C38.708 70.49 38.624 71.204 38.484 71.876H43.146V73.304H38.078C37.994 73.514 37.91 73.71 37.826 73.906C39.898 75.082 41.662 76.244 43.118 77.406L42.054 78.456C40.892 77.378 39.282 76.23 37.224 74.998L36.93 75.418C35.866 76.748 34.13 77.77 31.722 78.47L30.924 77.224C33.36 76.482 35.012 75.544 35.852 74.424C36.09 74.074 36.3 73.696 36.482 73.304H30.924V71.876ZM32.198 68.404C33.346 68.908 34.41 69.51 35.376 70.21L34.592 71.414C33.57 70.63 32.52 70 31.442 69.552L32.198 68.404ZM33.738 66.178C34.718 66.598 35.628 67.116 36.454 67.704L35.684 68.88C34.816 68.208 33.906 67.69 32.982 67.312L33.738 66.178Z" fill="#1D1C23"/>
<path d="M148.34 66.808C150.188 66.808 151.252 67.69 151.532 69.482H150.398C150.174 68.334 149.488 67.774 148.326 67.774C147.542 67.774 146.926 68.152 146.478 68.936C146.03 69.664 145.82 70.602 145.82 71.736C145.82 71.792 145.82 71.918 145.834 72.1H145.89C146.142 71.582 146.492 71.176 146.968 70.896C147.416 70.602 147.934 70.462 148.522 70.462C149.474 70.462 150.244 70.77 150.832 71.386C151.406 72.002 151.7 72.786 151.7 73.766C151.7 74.746 151.378 75.572 150.748 76.216C150.104 76.86 149.306 77.196 148.326 77.196C147.108 77.196 146.198 76.734 145.582 75.838C144.994 74.984 144.714 73.794 144.714 72.268C144.714 70.672 145.022 69.37 145.652 68.376C146.31 67.326 147.206 66.808 148.34 66.808ZM148.298 71.414C147.64 71.414 147.094 71.638 146.66 72.086C146.226 72.534 146.016 73.094 146.016 73.794C146.016 74.494 146.212 75.068 146.632 75.516C147.052 75.992 147.598 76.23 148.298 76.23C148.97 76.23 149.516 75.992 149.936 75.544C150.356 75.068 150.566 74.48 150.566 73.766C150.566 73.052 150.356 72.492 149.95 72.072C149.53 71.624 148.984 71.414 148.298 71.414ZM156.427 69.566C157.533 69.566 158.289 70.014 158.695 70.938C158.975 70.462 159.311 70.112 159.703 69.902C160.053 69.678 160.473 69.566 160.977 69.566C161.733 69.566 162.335 69.804 162.811 70.28C163.259 70.77 163.497 71.428 163.497 72.254V77H162.377V72.436C162.377 71.792 162.237 71.316 161.971 71.008C161.691 70.672 161.243 70.518 160.627 70.518C160.151 70.518 159.745 70.686 159.437 71.05C159.101 71.414 158.947 71.876 158.947 72.464V77H157.827V72.436C157.827 71.148 157.267 70.518 156.161 70.518C155.643 70.518 155.223 70.714 154.887 71.134C154.551 71.526 154.383 72.016 154.383 72.59V77H153.263V69.762H154.383V70.728C154.929 69.944 155.615 69.566 156.427 69.566ZM168.403 69.566C169.509 69.566 170.265 70.014 170.671 70.938C170.951 70.462 171.287 70.112 171.679 69.902C172.029 69.678 172.449 69.566 172.953 69.566C173.709 69.566 174.311 69.804 174.787 70.28C175.235 70.77 175.473 71.428 175.473 72.254V77H174.353V72.436C174.353 71.792 174.213 71.316 173.947 71.008C173.667 70.672 173.219 70.518 172.603 70.518C172.127 70.518 171.721 70.686 171.413 71.05C171.077 71.414 170.923 71.876 170.923 72.464V77H169.803V72.436C169.803 71.148 169.243 70.518 168.137 70.518C167.619 70.518 167.199 70.714 166.863 71.134C166.527 71.526 166.359 72.016 166.359 72.59V77H165.239V69.762H166.359V70.728C166.905 69.944 167.591 69.566 168.403 69.566ZM183.908 69.72H192.14V70.672H188.584V73.136H192.756V74.088H188.584V76.986C189.564 77.126 190.74 77.21 192.14 77.224C192.854 77.224 193.582 77.196 194.338 77.14L194.156 78.148H192.588C189.76 78.148 187.744 77.882 186.512 77.364C185.588 76.93 184.832 76.258 184.258 75.348C183.712 76.552 183.04 77.56 182.242 78.372L181.598 77.574C182.942 76.146 183.838 74.228 184.314 71.82L185.294 71.988C185.126 72.856 184.902 73.654 184.65 74.382C185.322 75.586 186.162 76.342 187.17 76.664C187.296 76.706 187.436 76.748 187.576 76.776V70.672H183.908V69.72ZM193.736 66.99V69.972H192.756V67.914H183.264V70.042H182.284V66.99H187.632C187.422 66.486 187.184 66.024 186.932 65.604L188.01 65.436C188.234 65.898 188.458 66.416 188.654 66.99H193.736ZM197.348 75.334L198.202 75.754C197.74 76.79 197.208 77.686 196.592 78.456L195.78 77.882C196.396 77.182 196.914 76.328 197.348 75.334ZM200.484 75.572C200.778 76.37 201.03 77.238 201.254 78.176L200.26 78.4C200.064 77.406 199.826 76.524 199.546 75.768L200.484 75.572ZM203.396 75.446C203.788 76.286 204.138 77.182 204.446 78.148L203.466 78.372C203.186 77.336 202.864 76.44 202.472 75.656L203.396 75.446ZM206.322 75.306C207.092 76.272 207.68 77.112 208.1 77.826L207.26 78.414C206.84 77.63 206.252 76.762 205.51 75.81L206.322 75.306ZM197.432 69.594C197.04 70.182 196.62 70.714 196.172 71.19L195.528 70.42C196.704 69.174 197.656 67.536 198.412 65.506L199.364 65.716C199.168 66.234 198.972 66.724 198.776 67.186H202.066C201.898 66.626 201.716 66.136 201.52 65.688L202.556 65.52C202.724 66.024 202.892 66.57 203.06 67.186H207.19V68.096H203.074V69.496H206.602V70.35H203.074V71.68H206.602V72.548H203.074V73.92H207.344V74.844H197.432V69.594ZM202.094 73.92V72.548H198.44V73.92H202.094ZM202.094 71.68V70.35H198.44V71.68H202.094ZM202.094 69.496V68.096H198.44V69.496H202.094ZM214.974 66.626H217.76C217.62 66.262 217.452 65.912 217.284 65.59L218.292 65.422C218.432 65.772 218.586 66.178 218.726 66.626H221.694V67.466H220.546C220.42 67.998 220.252 68.502 220.028 68.978H222.156V69.832H214.554V68.978H216.64C216.472 68.418 216.29 67.914 216.094 67.466H214.974V66.626ZM219.062 68.978C219.314 68.488 219.496 67.984 219.608 67.466H217.074C217.242 67.928 217.396 68.432 217.55 68.978H219.062ZM215.408 70.672H221.204V75.068H219.776V76.888C219.776 77.238 219.944 77.42 220.294 77.42H220.896C221.12 77.42 221.288 77.35 221.386 77.224C221.512 77.056 221.596 76.566 221.638 75.768L222.464 76.02C222.38 77.084 222.226 77.728 222.002 77.966C221.806 78.148 221.484 78.246 221.05 78.246H220.028C219.23 78.246 218.838 77.854 218.838 77.084V75.068H217.606C217.452 75.908 217.158 76.594 216.724 77.112C216.22 77.7 215.394 78.148 214.232 78.47L213.882 77.63C214.834 77.378 215.534 77.014 215.968 76.566C216.304 76.174 216.542 75.684 216.668 75.068H215.408V70.672ZM220.294 74.256V73.234H216.318V74.256H220.294ZM216.318 72.492H220.294V71.47H216.318V72.492ZM211.292 65.478L212.258 65.688C212.132 66.206 212.006 66.696 211.866 67.144H214.288V68.11H211.544C211.18 69.076 210.774 69.958 210.312 70.742L209.486 70.224C210.312 68.796 210.914 67.214 211.292 65.478ZM210.942 69.972H214.12V70.882H212.65V72.604H214.442V73.528H212.65V76.776C213.126 76.552 213.616 76.258 214.106 75.908L214.288 76.776C213.532 77.28 212.678 77.686 211.698 77.994L211.306 77.154C211.544 77.07 211.67 76.916 211.67 76.706V73.528H209.92V72.604H211.67V70.882H210.942V69.972ZM223.976 72.128H230.206C230.374 71.414 230.472 70.644 230.5 69.832V65.59H231.522V69.832C231.494 70.672 231.396 71.428 231.242 72.128H236.128V73.108H230.976C230.878 73.402 230.766 73.682 230.64 73.948C232.782 75.194 234.588 76.44 236.058 77.672L235.33 78.386C234.07 77.238 232.376 76.006 230.22 74.718C230.08 74.942 229.926 75.166 229.772 75.376C228.694 76.664 226.944 77.658 224.508 78.386L223.962 77.532C226.398 76.804 228.106 75.852 229.058 74.662C229.394 74.186 229.674 73.668 229.898 73.108H223.976V72.128ZM225.11 68.586C226.258 69.09 227.322 69.692 228.274 70.42L227.728 71.246C226.706 70.462 225.656 69.832 224.578 69.37L225.11 68.586ZM226.65 66.332C227.63 66.78 228.54 67.312 229.352 67.928L228.82 68.74C227.938 68.04 227.042 67.508 226.118 67.116L226.65 66.332Z" fill="#1D1C23"/>
<path d="M583.886 67.004H584.782V77H583.634V68.404C583.004 69.048 582.22 69.496 581.282 69.776V68.628C581.73 68.502 582.206 68.306 582.682 68.026C583.158 67.718 583.55 67.382 583.886 67.004ZM590.625 66.808C591.549 66.808 592.305 67.074 592.907 67.606C593.495 68.138 593.803 68.852 593.803 69.72C593.803 70.588 593.467 71.372 592.823 72.072C592.473 72.436 591.787 72.982 590.751 73.682C589.477 74.536 588.749 75.306 588.567 75.978H593.817V77H587.153C587.153 76.09 587.475 75.264 588.147 74.522C588.539 74.074 589.253 73.472 590.317 72.744C591.101 72.184 591.619 71.778 591.885 71.498C592.389 70.952 592.655 70.35 592.655 69.706C592.655 69.09 592.473 68.628 592.109 68.292C591.745 67.956 591.227 67.788 590.583 67.788C589.897 67.788 589.365 68.012 589.001 68.488C588.609 68.936 588.399 69.608 588.385 70.49H587.237C587.237 69.37 587.559 68.474 588.175 67.816C588.791 67.144 589.617 66.808 590.625 66.808ZM598.712 69.566C599.818 69.566 600.574 70.014 600.98 70.938C601.26 70.462 601.596 70.112 601.988 69.902C602.338 69.678 602.758 69.566 603.262 69.566C604.018 69.566 604.62 69.804 605.096 70.28C605.544 70.77 605.782 71.428 605.782 72.254V77H604.662V72.436C604.662 71.792 604.522 71.316 604.256 71.008C603.976 70.672 603.528 70.518 602.912 70.518C602.436 70.518 602.03 70.686 601.722 71.05C601.386 71.414 601.232 71.876 601.232 72.464V77H600.112V72.436C600.112 71.148 599.552 70.518 598.446 70.518C597.928 70.518 597.508 70.714 597.172 71.134C596.836 71.526 596.668 72.016 596.668 72.59V77H595.548V69.762H596.668V70.728C597.214 69.944 597.9 69.566 598.712 69.566ZM610.688 69.566C611.794 69.566 612.55 70.014 612.956 70.938C613.236 70.462 613.572 70.112 613.964 69.902C614.314 69.678 614.734 69.566 615.238 69.566C615.994 69.566 616.596 69.804 617.072 70.28C617.52 70.77 617.758 71.428 617.758 72.254V77H616.638V72.436C616.638 71.792 616.498 71.316 616.232 71.008C615.952 70.672 615.504 70.518 614.888 70.518C614.412 70.518 614.006 70.686 613.698 71.05C613.362 71.414 613.208 71.876 613.208 72.464V77H612.088V72.436C612.088 71.148 611.528 70.518 610.422 70.518C609.904 70.518 609.484 70.714 609.148 71.134C608.812 71.526 608.644 72.016 608.644 72.59V77H607.524V69.762H608.644V70.728C609.19 69.944 609.876 69.566 610.688 69.566ZM626.193 69.72H634.425V70.672H630.869V73.136H635.041V74.088H630.869V76.986C631.849 77.126 633.025 77.21 634.425 77.224C635.139 77.224 635.867 77.196 636.623 77.14L636.441 78.148H634.873C632.045 78.148 630.029 77.882 628.797 77.364C627.873 76.93 627.117 76.258 626.543 75.348C625.997 76.552 625.325 77.56 624.527 78.372L623.883 77.574C625.227 76.146 626.123 74.228 626.599 71.82L627.579 71.988C627.411 72.856 627.187 73.654 626.935 74.382C627.607 75.586 628.447 76.342 629.455 76.664C629.581 76.706 629.721 76.748 629.861 76.776V70.672H626.193V69.72ZM636.021 66.99V69.972H635.041V67.914H625.549V70.042H624.569V66.99H629.917C629.707 66.486 629.469 66.024 629.217 65.604L630.295 65.436C630.519 65.898 630.743 66.416 630.939 66.99H636.021ZM639.633 75.334L640.487 75.754C640.025 76.79 639.493 77.686 638.877 78.456L638.065 77.882C638.681 77.182 639.199 76.328 639.633 75.334ZM642.769 75.572C643.063 76.37 643.315 77.238 643.539 78.176L642.545 78.4C642.349 77.406 642.111 76.524 641.831 75.768L642.769 75.572ZM645.681 75.446C646.073 76.286 646.423 77.182 646.731 78.148L645.751 78.372C645.471 77.336 645.149 76.44 644.757 75.656L645.681 75.446ZM648.607 75.306C649.377 76.272 649.965 77.112 650.385 77.826L649.545 78.414C649.125 77.63 648.537 76.762 647.795 75.81L648.607 75.306ZM639.717 69.594C639.325 70.182 638.905 70.714 638.457 71.19L637.813 70.42C638.989 69.174 639.941 67.536 640.697 65.506L641.649 65.716C641.453 66.234 641.257 66.724 641.061 67.186H644.351C644.183 66.626 644.001 66.136 643.805 65.688L644.841 65.52C645.009 66.024 645.177 66.57 645.345 67.186H649.475V68.096H645.359V69.496H648.887V70.35H645.359V71.68H648.887V72.548H645.359V73.92H649.629V74.844H639.717V69.594ZM644.379 73.92V72.548H640.725V73.92H644.379ZM644.379 71.68V70.35H640.725V71.68H644.379ZM644.379 69.496V68.096H640.725V69.496H644.379ZM657.259 66.626H660.045C659.905 66.262 659.737 65.912 659.569 65.59L660.577 65.422C660.717 65.772 660.871 66.178 661.011 66.626H663.979V67.466H662.831C662.705 67.998 662.537 68.502 662.313 68.978H664.441V69.832H656.839V68.978H658.925C658.757 68.418 658.575 67.914 658.379 67.466H657.259V66.626ZM661.347 68.978C661.599 68.488 661.781 67.984 661.893 67.466H659.359C659.527 67.928 659.681 68.432 659.835 68.978H661.347ZM657.693 70.672H663.489V75.068H662.061V76.888C662.061 77.238 662.229 77.42 662.579 77.42H663.181C663.405 77.42 663.573 77.35 663.671 77.224C663.797 77.056 663.881 76.566 663.923 75.768L664.749 76.02C664.665 77.084 664.511 77.728 664.287 77.966C664.091 78.148 663.769 78.246 663.335 78.246H662.313C661.515 78.246 661.123 77.854 661.123 77.084V75.068H659.891C659.737 75.908 659.443 76.594 659.009 77.112C658.505 77.7 657.679 78.148 656.517 78.47L656.167 77.63C657.119 77.378 657.819 77.014 658.253 76.566C658.589 76.174 658.827 75.684 658.953 75.068H657.693V70.672ZM662.579 74.256V73.234H658.603V74.256H662.579ZM658.603 72.492H662.579V71.47H658.603V72.492ZM653.577 65.478L654.543 65.688C654.417 66.206 654.291 66.696 654.151 67.144H656.573V68.11H653.829C653.465 69.076 653.059 69.958 652.597 70.742L651.771 70.224C652.597 68.796 653.199 67.214 653.577 65.478ZM653.227 69.972H656.405V70.882H654.935V72.604H656.727V73.528H654.935V76.776C655.411 76.552 655.901 76.258 656.391 75.908L656.573 76.776C655.817 77.28 654.963 77.686 653.983 77.994L653.591 77.154C653.829 77.07 653.955 76.916 653.955 76.706V73.528H652.205V72.604H653.955V70.882H653.227V69.972ZM666.261 72.128H672.491C672.659 71.414 672.757 70.644 672.785 69.832V65.59H673.807V69.832C673.779 70.672 673.681 71.428 673.527 72.128H678.413V73.108H673.261C673.163 73.402 673.051 73.682 672.925 73.948C675.067 75.194 676.873 76.44 678.343 77.672L677.615 78.386C676.355 77.238 674.661 76.006 672.505 74.718C672.365 74.942 672.211 75.166 672.057 75.376C670.979 76.664 669.229 77.658 666.793 78.386L666.247 77.532C668.683 76.804 670.391 75.852 671.343 74.662C671.679 74.186 671.959 73.668 672.183 73.108H666.261V72.128ZM667.395 68.586C668.543 69.09 669.607 69.692 670.559 70.42L670.013 71.246C668.991 70.462 667.941 69.832 666.863 69.37L667.395 68.586ZM668.935 66.332C669.915 66.78 670.825 67.312 671.637 67.928L671.105 68.74C670.223 68.04 669.327 67.508 668.403 67.116L668.935 66.332Z" fill="#1D1C23"/>
<path d="M1020.55 67.004H1021.45V77H1020.3V68.404C1019.67 69.048 1018.89 69.496 1017.95 69.776V68.628C1018.4 68.502 1018.87 68.306 1019.35 68.026C1019.83 67.718 1020.22 67.382 1020.55 67.004ZM1027.29 66.808C1029.14 66.808 1030.21 67.69 1030.49 69.482H1029.35C1029.13 68.334 1028.44 67.774 1027.28 67.774C1026.5 67.774 1025.88 68.152 1025.43 68.936C1024.98 69.664 1024.77 70.602 1024.77 71.736C1024.77 71.792 1024.77 71.918 1024.79 72.1H1024.84C1025.1 71.582 1025.45 71.176 1025.92 70.896C1026.37 70.602 1026.89 70.462 1027.48 70.462C1028.43 70.462 1029.2 70.77 1029.79 71.386C1030.36 72.002 1030.65 72.786 1030.65 73.766C1030.65 74.746 1030.33 75.572 1029.7 76.216C1029.06 76.86 1028.26 77.196 1027.28 77.196C1026.06 77.196 1025.15 76.734 1024.54 75.838C1023.95 74.984 1023.67 73.794 1023.67 72.268C1023.67 70.672 1023.98 69.37 1024.61 68.376C1025.26 67.326 1026.16 66.808 1027.29 66.808ZM1027.25 71.414C1026.59 71.414 1026.05 71.638 1025.61 72.086C1025.18 72.534 1024.97 73.094 1024.97 73.794C1024.97 74.494 1025.17 75.068 1025.59 75.516C1026.01 75.992 1026.55 76.23 1027.25 76.23C1027.92 76.23 1028.47 75.992 1028.89 75.544C1029.31 75.068 1029.52 74.48 1029.52 73.766C1029.52 73.052 1029.31 72.492 1028.9 72.072C1028.48 71.624 1027.94 71.414 1027.25 71.414ZM1035.38 69.566C1036.49 69.566 1037.24 70.014 1037.65 70.938C1037.93 70.462 1038.26 70.112 1038.66 69.902C1039.01 69.678 1039.43 69.566 1039.93 69.566C1040.69 69.566 1041.29 69.804 1041.76 70.28C1042.21 70.77 1042.45 71.428 1042.45 72.254V77H1041.33V72.436C1041.33 71.792 1041.19 71.316 1040.92 71.008C1040.64 70.672 1040.2 70.518 1039.58 70.518C1039.1 70.518 1038.7 70.686 1038.39 71.05C1038.05 71.414 1037.9 71.876 1037.9 72.464V77H1036.78V72.436C1036.78 71.148 1036.22 70.518 1035.11 70.518C1034.6 70.518 1034.18 70.714 1033.84 71.134C1033.5 71.526 1033.34 72.016 1033.34 72.59V77H1032.22V69.762H1033.34V70.728C1033.88 69.944 1034.57 69.566 1035.38 69.566ZM1047.36 69.566C1048.46 69.566 1049.22 70.014 1049.62 70.938C1049.9 70.462 1050.24 70.112 1050.63 69.902C1050.98 69.678 1051.4 69.566 1051.91 69.566C1052.66 69.566 1053.26 69.804 1053.74 70.28C1054.19 70.77 1054.43 71.428 1054.43 72.254V77H1053.31V72.436C1053.31 71.792 1053.17 71.316 1052.9 71.008C1052.62 70.672 1052.17 70.518 1051.56 70.518C1051.08 70.518 1050.67 70.686 1050.37 71.05C1050.03 71.414 1049.88 71.876 1049.88 72.464V77H1048.76V72.436C1048.76 71.148 1048.2 70.518 1047.09 70.518C1046.57 70.518 1046.15 70.714 1045.82 71.134C1045.48 71.526 1045.31 72.016 1045.31 72.59V77H1044.19V69.762H1045.31V70.728C1045.86 69.944 1046.54 69.566 1047.36 69.566ZM1062.86 69.72H1071.09V70.672H1067.54V73.136H1071.71V74.088H1067.54V76.986C1068.52 77.126 1069.69 77.21 1071.09 77.224C1071.81 77.224 1072.53 77.196 1073.29 77.14L1073.11 78.148H1071.54C1068.71 78.148 1066.7 77.882 1065.46 77.364C1064.54 76.93 1063.78 76.258 1063.21 75.348C1062.66 76.552 1061.99 77.56 1061.19 78.372L1060.55 77.574C1061.89 76.146 1062.79 74.228 1063.27 71.82L1064.25 71.988C1064.08 72.856 1063.85 73.654 1063.6 74.382C1064.27 75.586 1065.11 76.342 1066.12 76.664C1066.25 76.706 1066.39 76.748 1066.53 76.776V70.672H1062.86V69.72ZM1072.69 66.99V69.972H1071.71V67.914H1062.22V70.042H1061.24V66.99H1066.58C1066.37 66.486 1066.14 66.024 1065.88 65.604L1066.96 65.436C1067.19 65.898 1067.41 66.416 1067.61 66.99H1072.69ZM1076.3 75.334L1077.15 75.754C1076.69 76.79 1076.16 77.686 1075.54 78.456L1074.73 77.882C1075.35 77.182 1075.87 76.328 1076.3 75.334ZM1079.44 75.572C1079.73 76.37 1079.98 77.238 1080.21 78.176L1079.21 78.4C1079.02 77.406 1078.78 76.524 1078.5 75.768L1079.44 75.572ZM1082.35 75.446C1082.74 76.286 1083.09 77.182 1083.4 78.148L1082.42 78.372C1082.14 77.336 1081.82 76.44 1081.42 75.656L1082.35 75.446ZM1085.27 75.306C1086.04 76.272 1086.63 77.112 1087.05 77.826L1086.21 78.414C1085.79 77.63 1085.2 76.762 1084.46 75.81L1085.27 75.306ZM1076.38 69.594C1075.99 70.182 1075.57 70.714 1075.12 71.19L1074.48 70.42C1075.66 69.174 1076.61 67.536 1077.36 65.506L1078.32 65.716C1078.12 66.234 1077.92 66.724 1077.73 67.186H1081.02C1080.85 66.626 1080.67 66.136 1080.47 65.688L1081.51 65.52C1081.68 66.024 1081.84 66.57 1082.01 67.186H1086.14V68.096H1082.03V69.496H1085.55V70.35H1082.03V71.68H1085.55V72.548H1082.03V73.92H1086.3V74.844H1076.38V69.594ZM1081.05 73.92V72.548H1077.39V73.92H1081.05ZM1081.05 71.68V70.35H1077.39V71.68H1081.05ZM1081.05 69.496V68.096H1077.39V69.496H1081.05ZM1093.93 66.626H1096.71C1096.57 66.262 1096.4 65.912 1096.24 65.59L1097.24 65.422C1097.38 65.772 1097.54 66.178 1097.68 66.626H1100.65V67.466H1099.5C1099.37 67.998 1099.2 68.502 1098.98 68.978H1101.11V69.832H1093.51V68.978H1095.59C1095.42 68.418 1095.24 67.914 1095.05 67.466H1093.93V66.626ZM1098.01 68.978C1098.27 68.488 1098.45 67.984 1098.56 67.466H1096.03C1096.19 67.928 1096.35 68.432 1096.5 68.978H1098.01ZM1094.36 70.672H1100.16V75.068H1098.73V76.888C1098.73 77.238 1098.9 77.42 1099.25 77.42H1099.85C1100.07 77.42 1100.24 77.35 1100.34 77.224C1100.46 77.056 1100.55 76.566 1100.59 75.768L1101.42 76.02C1101.33 77.084 1101.18 77.728 1100.95 77.966C1100.76 78.148 1100.44 78.246 1100 78.246H1098.98C1098.18 78.246 1097.79 77.854 1097.79 77.084V75.068H1096.56C1096.4 75.908 1096.11 76.594 1095.68 77.112C1095.17 77.7 1094.35 78.148 1093.18 78.47L1092.83 77.63C1093.79 77.378 1094.49 77.014 1094.92 76.566C1095.26 76.174 1095.49 75.684 1095.62 75.068H1094.36V70.672ZM1099.25 74.256V73.234H1095.27V74.256H1099.25ZM1095.27 72.492H1099.25V71.47H1095.27V72.492ZM1090.24 65.478L1091.21 65.688C1091.08 66.206 1090.96 66.696 1090.82 67.144H1093.24V68.11H1090.5C1090.13 69.076 1089.73 69.958 1089.26 70.742L1088.44 70.224C1089.26 68.796 1089.87 67.214 1090.24 65.478ZM1089.89 69.972H1093.07V70.882H1091.6V72.604H1093.39V73.528H1091.6V76.776C1092.08 76.552 1092.57 76.258 1093.06 75.908L1093.24 76.776C1092.48 77.28 1091.63 77.686 1090.65 77.994L1090.26 77.154C1090.5 77.07 1090.62 76.916 1090.62 76.706V73.528H1088.87V72.604H1090.62V70.882H1089.89V69.972ZM1102.93 72.128H1109.16C1109.33 71.414 1109.42 70.644 1109.45 69.832V65.59H1110.47V69.832C1110.45 70.672 1110.35 71.428 1110.19 72.128H1115.08V73.108H1109.93C1109.83 73.402 1109.72 73.682 1109.59 73.948C1111.73 75.194 1113.54 76.44 1115.01 77.672L1114.28 78.386C1113.02 77.238 1111.33 76.006 1109.17 74.718C1109.03 74.942 1108.88 75.166 1108.72 75.376C1107.65 76.664 1105.9 77.658 1103.46 78.386L1102.91 77.532C1105.35 76.804 1107.06 75.852 1108.01 74.662C1108.35 74.186 1108.63 73.668 1108.85 73.108H1102.93V72.128ZM1104.06 68.586C1105.21 69.09 1106.27 69.692 1107.23 70.42L1106.68 71.246C1105.66 70.462 1104.61 69.832 1103.53 69.37L1104.06 68.586ZM1105.6 66.332C1106.58 66.78 1107.49 67.312 1108.3 67.928L1107.77 68.74C1106.89 68.04 1105.99 67.508 1105.07 67.116L1105.6 66.332Z" fill="#1D1C23"/>
<line y1="97.5" x2="1384" y2="97.5" stroke="#DFE1E2"/>
<path d="M18.45 125.15C18.002 125.598 17.512 126.032 16.994 126.48L16.532 124.94C18.268 123.484 19.444 122.056 20.074 120.67H16.854V119.27H18.758C18.548 118.752 18.324 118.248 18.072 117.772L19.458 117.38C19.738 118.066 19.976 118.696 20.144 119.27H21.544V120.502C21.194 121.482 20.662 122.462 19.948 123.428C20.662 123.876 21.32 124.366 21.936 124.926L21.11 126.186C20.69 125.724 20.284 125.332 19.892 124.996V130.456H18.45V125.15ZM28.53 117.94V125.878H27.046V119.34H23.672V125.878H22.216V117.94H28.53ZM28.054 130.232H26.654C25.772 130.232 25.338 129.756 25.338 128.804V126.9C25.198 127.25 25.058 127.572 24.904 127.866C24.218 129.042 23.126 129.938 21.614 130.582L20.816 129.294C22.286 128.65 23.28 127.838 23.798 126.872C24.302 125.822 24.582 124.464 24.638 122.812V120.18H26.038V122.812C25.996 123.946 25.87 124.954 25.66 125.836H26.766V128.496C26.766 128.762 26.864 128.902 27.088 128.902H27.788C27.914 128.902 28.012 128.832 28.082 128.692C28.152 128.524 28.208 128.076 28.236 127.32L29.594 127.754C29.496 128.958 29.328 129.686 29.104 129.91C28.866 130.12 28.516 130.232 28.054 130.232ZM37.588 123.54H35.726V122.21C37.238 121.356 38.652 120.446 39.954 119.494H35.936V118.164H42.124V119.424C40.934 120.418 39.632 121.37 38.204 122.28H43.188C43.09 125.696 42.908 127.894 42.656 128.846C42.404 129.798 41.718 130.274 40.598 130.302C40.136 130.302 39.688 130.274 39.254 130.246L38.848 128.846C39.366 128.902 39.884 128.93 40.388 128.93C40.836 128.916 41.158 128.692 41.34 128.272C41.508 127.936 41.634 126.354 41.718 123.54H41.102C40.766 125.164 40.276 126.452 39.66 127.39C38.932 128.454 37.84 129.406 36.384 130.246L35.474 129.084C36.762 128.384 37.742 127.6 38.414 126.732C38.988 125.92 39.422 124.856 39.702 123.54H38.96C38.456 125.276 37.588 126.634 36.356 127.628L35.432 126.494C36.426 125.724 37.14 124.744 37.588 123.54ZM30.644 121.216H32.17V117.842H33.654V121.216H35.25V122.63H33.654V126.984C34.172 126.816 34.69 126.634 35.208 126.438V127.964C33.864 128.468 32.436 128.902 30.896 129.266L30.504 127.712C31.064 127.628 31.61 127.516 32.17 127.39V122.63H30.644V121.216ZM47.71 124.8V124.856C47.696 125.276 47.668 125.668 47.626 126.046H50.524V124.8H47.71ZM47.416 127.334C47.108 128.566 46.59 129.63 45.848 130.526L44.728 129.504C45.736 128.328 46.254 126.816 46.282 124.968V121.986C46.03 122.168 45.764 122.336 45.512 122.504L44.574 121.37C46.198 120.446 47.598 119.116 48.788 117.408L50.258 117.744C50.09 117.996 49.908 118.248 49.74 118.5H54.724V119.564C54.234 120.04 53.744 120.474 53.254 120.838H56.488V129C56.488 129.924 55.942 130.386 54.878 130.386H53.128L52.778 129.042C53.38 129.084 53.94 129.112 54.458 129.112C54.85 129.112 55.046 128.902 55.046 128.496V127.334H51.966V130.204H50.524V127.334H47.416ZM55.046 126.046V124.8H51.966V126.046H55.046ZM55.046 123.512V122.154H51.966V123.512H55.046ZM47.696 120.838H51.21C51.7 120.516 52.19 120.152 52.694 119.76H48.746C48.41 120.138 48.06 120.502 47.696 120.838ZM50.524 122.154H47.71V123.512H50.524V122.154Z" fill="#1D1C23"/>
<path d="M144.952 121.118H149.502V121.916C148.774 125.01 147.346 127.362 145.19 128.958L144.546 128.132C146.464 126.718 147.78 124.702 148.508 122.098H144.952V121.118ZM155.788 119.774L156.6 120.376C155.508 121.72 154.36 122.868 153.17 123.792C154.262 125.57 155.704 127.04 157.468 128.216L156.852 129.126C154.416 127.25 152.666 125.094 151.63 122.658V129.028C151.63 129.896 151.21 130.344 150.384 130.344H148.55L148.34 129.35C148.928 129.392 149.502 129.42 150.034 129.42C150.398 129.42 150.594 129.196 150.594 128.776V117.506H151.63V120.474C151.924 121.37 152.288 122.21 152.708 122.994C153.842 122.056 154.864 120.978 155.788 119.774ZM159.358 118.192H170.67V119.172H165.462V124.464H171.202V125.43H165.462V130.386H164.426V125.43H158.798V124.464H164.426V119.172H159.358V118.192ZM161.066 120.068C161.598 121.048 162.102 122.112 162.578 123.274L161.64 123.736C161.164 122.532 160.66 121.468 160.128 120.53L161.066 120.068ZM169.004 119.998L169.928 120.432C169.508 121.538 168.948 122.616 168.262 123.68L167.366 123.218C168.052 122.126 168.598 121.062 169.004 119.998ZM176.298 118.808C177.25 118.808 178.034 119.046 178.622 119.536C179.196 120.026 179.49 120.684 179.49 121.524C179.49 122.644 178.944 123.4 177.852 123.764C178.44 123.946 178.888 124.226 179.196 124.618C179.532 125.01 179.7 125.5 179.7 126.088C179.7 126.998 179.378 127.74 178.748 128.314C178.104 128.902 177.264 129.196 176.228 129.196C175.276 129.196 174.506 128.944 173.904 128.468C173.19 127.88 172.798 127.026 172.714 125.906H173.876C173.904 126.69 174.17 127.292 174.66 127.698C175.08 128.034 175.598 128.216 176.228 128.216C176.942 128.216 177.516 128.006 177.95 127.6C178.342 127.208 178.552 126.718 178.552 126.13C178.552 125.528 178.356 125.066 177.964 124.73C177.572 124.394 177.04 124.24 176.34 124.24H175.528V123.344H176.298C176.97 123.344 177.474 123.19 177.824 122.896C178.174 122.588 178.356 122.154 178.356 121.594C178.356 121.034 178.174 120.6 177.838 120.292C177.474 119.956 176.956 119.802 176.312 119.802C175.64 119.802 175.122 119.97 174.744 120.334C174.352 120.698 174.128 121.216 174.058 121.888H172.924C173.008 120.922 173.372 120.166 173.988 119.62C174.576 119.074 175.346 118.808 176.298 118.808ZM180.871 119.004H187.437V119.942L183.755 129H182.537L186.261 120.054H180.871V119.004ZM190.361 117.38C190.837 117.38 191.243 117.548 191.579 117.898C191.915 118.234 192.097 118.64 192.097 119.116C192.097 119.592 191.915 119.998 191.579 120.334C191.243 120.67 190.837 120.838 190.361 120.838C189.885 120.838 189.479 120.67 189.143 120.334C188.807 119.998 188.639 119.592 188.639 119.116C188.639 118.64 188.807 118.234 189.143 117.898C189.479 117.548 189.885 117.38 190.361 117.38ZM190.361 118.038C190.067 118.038 189.815 118.136 189.605 118.346C189.381 118.556 189.283 118.808 189.283 119.116C189.283 119.41 189.381 119.662 189.605 119.872C189.815 120.082 190.067 120.194 190.361 120.194C190.655 120.194 190.907 120.082 191.131 119.872C191.327 119.662 191.439 119.41 191.439 119.116C191.439 118.808 191.327 118.556 191.131 118.346C190.907 118.136 190.655 118.038 190.361 118.038ZM195.108 127.04C195.64 127.418 196.186 127.88 196.718 128.44C197.18 128.916 197.586 129.406 197.922 129.882L197.222 130.47C196.886 129.994 196.48 129.518 196.032 129.042C195.514 128.482 194.996 128.02 194.478 127.628L195.108 127.04ZM208.198 120.488H213.182V119.186C211.74 119.27 210.186 119.312 208.52 119.312L208.226 118.458C212.286 118.444 215.674 118.192 218.362 117.716L218.838 118.542C217.494 118.794 215.954 118.99 214.19 119.13V120.488H219.174V121.426H217.494V123.344H219.93V124.296H217.494V126.34H219.244V127.278H214.19V128.972H218.936V129.924H208.45V128.972H213.182V127.278H208.156V126.34H209.878V124.296H207.456V123.344H209.878V121.426H208.198V120.488ZM216.542 126.34V124.296H214.19V126.34H216.542ZM216.542 123.344V121.426H214.19V123.344H216.542ZM213.182 126.34V124.296H210.83V126.34H213.182ZM213.182 123.344V121.426H210.83V123.344H213.182ZM221.75 118.836H227.154C227.21 118.388 227.266 117.954 227.308 117.52L228.33 117.66C228.288 118.066 228.246 118.458 228.19 118.836H233.622V119.802H228.036C227.966 120.208 227.882 120.6 227.798 120.964H231.83V129.14H233.902V130.078H221.484V129.14H223.486V120.964H226.762C226.846 120.572 226.93 120.18 227 119.802H221.75V118.836ZM224.48 129.14H230.836V127.908H224.48V129.14ZM224.48 127.082H230.836V125.892H224.48V127.082ZM224.48 125.08H230.836V123.904H224.48V125.08ZM224.48 123.078H230.836V121.86H224.48V123.078ZM239.026 118.808C239.95 118.808 240.706 119.074 241.308 119.606C241.896 120.138 242.204 120.852 242.204 121.72C242.204 122.588 241.868 123.372 241.224 124.072C240.874 124.436 240.188 124.982 239.152 125.682C237.878 126.536 237.15 127.306 236.968 127.978H242.218V129H235.554C235.554 128.09 235.876 127.264 236.548 126.522C236.94 126.074 237.654 125.472 238.718 124.744C239.502 124.184 240.02 123.778 240.286 123.498C240.79 122.952 241.056 122.35 241.056 121.706C241.056 121.09 240.874 120.628 240.51 120.292C240.146 119.956 239.628 119.788 238.984 119.788C238.298 119.788 237.766 120.012 237.402 120.488C237.01 120.936 236.8 121.608 236.786 122.49H235.638C235.638 121.37 235.96 120.474 236.576 119.816C237.192 119.144 238.018 118.808 239.026 118.808ZM247.28 118.808C248.316 118.808 249.142 119.074 249.73 119.62C250.262 120.11 250.542 120.726 250.542 121.454C250.542 121.986 250.416 122.434 250.164 122.798C249.884 123.19 249.492 123.484 248.974 123.666V123.694C249.492 123.82 249.94 124.114 250.304 124.562C250.696 125.038 250.892 125.598 250.892 126.242C250.892 127.124 250.584 127.838 249.968 128.37C249.324 128.916 248.428 129.196 247.28 129.196C246.118 129.196 245.222 128.916 244.592 128.37C243.976 127.838 243.668 127.124 243.668 126.242C243.668 125.598 243.864 125.038 244.256 124.562C244.62 124.114 245.054 123.82 245.586 123.694V123.666C245.054 123.484 244.662 123.19 244.396 122.798C244.144 122.434 244.018 121.986 244.018 121.454C244.018 120.726 244.284 120.11 244.83 119.62C245.418 119.074 246.23 118.808 247.28 118.808ZM247.28 119.746C246.566 119.746 246.006 119.928 245.614 120.292C245.264 120.6 245.096 121.006 245.096 121.496C245.096 122 245.25 122.42 245.558 122.728C245.922 123.092 246.496 123.288 247.28 123.288C248.05 123.288 248.624 123.092 249.002 122.728C249.31 122.42 249.464 122 249.464 121.496C249.464 121.006 249.282 120.6 248.946 120.292C248.54 119.928 247.98 119.746 247.28 119.746ZM247.28 124.184C246.468 124.184 245.852 124.38 245.418 124.786C244.998 125.15 244.802 125.64 244.802 126.242C244.802 126.83 244.998 127.32 245.418 127.684C245.838 128.062 246.468 128.258 247.28 128.258C248.092 128.258 248.708 128.062 249.156 127.67C249.548 127.306 249.758 126.83 249.758 126.242C249.758 125.64 249.548 125.15 249.156 124.786C248.708 124.38 248.078 124.184 247.28 124.184ZM253.785 117.38C254.261 117.38 254.667 117.548 255.003 117.898C255.339 118.234 255.521 118.64 255.521 119.116C255.521 119.592 255.339 119.998 255.003 120.334C254.667 120.67 254.261 120.838 253.785 120.838C253.309 120.838 252.903 120.67 252.567 120.334C252.231 119.998 252.063 119.592 252.063 119.116C252.063 118.64 252.231 118.234 252.567 117.898C252.903 117.548 253.309 117.38 253.785 117.38ZM253.785 118.038C253.491 118.038 253.239 118.136 253.029 118.346C252.805 118.556 252.707 118.808 252.707 119.116C252.707 119.41 252.805 119.662 253.029 119.872C253.239 120.082 253.491 120.194 253.785 120.194C254.079 120.194 254.331 120.082 254.555 119.872C254.751 119.662 254.863 119.41 254.863 119.116C254.863 118.808 254.751 118.556 254.555 118.346C254.331 118.136 254.079 118.038 253.785 118.038Z" fill="#1D1C23"/>
<path d="M581.618 121.118H586.168V121.916C585.44 125.01 584.012 127.362 581.856 128.958L581.212 128.132C583.13 126.718 584.446 124.702 585.174 122.098H581.618V121.118ZM592.454 119.774L593.266 120.376C592.174 121.72 591.026 122.868 589.836 123.792C590.928 125.57 592.37 127.04 594.134 128.216L593.518 129.126C591.082 127.25 589.332 125.094 588.296 122.658V129.028C588.296 129.896 587.876 130.344 587.05 130.344H585.216L585.006 129.35C585.594 129.392 586.168 129.42 586.7 129.42C587.064 129.42 587.26 129.196 587.26 128.776V117.506H588.296V120.474C588.59 121.37 588.954 122.21 589.374 122.994C590.508 122.056 591.53 120.978 592.454 119.774ZM596.024 118.192H607.336V119.172H602.128V124.464H607.868V125.43H602.128V130.386H601.092V125.43H595.464V124.464H601.092V119.172H596.024V118.192ZM597.732 120.068C598.264 121.048 598.768 122.112 599.244 123.274L598.306 123.736C597.83 122.532 597.326 121.468 596.794 120.53L597.732 120.068ZM605.67 119.998L606.594 120.432C606.174 121.538 605.614 122.616 604.928 123.68L604.032 123.218C604.718 122.126 605.264 121.062 605.67 119.998ZM617.626 118.808C618.578 118.808 619.362 119.046 619.95 119.536C620.524 120.026 620.818 120.684 620.818 121.524C620.818 122.644 620.272 123.4 619.18 123.764C619.768 123.946 620.216 124.226 620.524 124.618C620.86 125.01 621.028 125.5 621.028 126.088C621.028 126.998 620.706 127.74 620.076 128.314C619.432 128.902 618.592 129.196 617.556 129.196C616.604 129.196 615.834 128.944 615.232 128.468C614.518 127.88 614.126 127.026 614.042 125.906H615.204C615.232 126.69 615.498 127.292 615.988 127.698C616.408 128.034 616.926 128.216 617.556 128.216C618.27 128.216 618.844 128.006 619.278 127.6C619.67 127.208 619.88 126.718 619.88 126.13C619.88 125.528 619.684 125.066 619.292 124.73C618.9 124.394 618.368 124.24 617.668 124.24H616.856V123.344H617.626C618.298 123.344 618.802 123.19 619.152 122.896C619.502 122.588 619.684 122.154 619.684 121.594C619.684 121.034 619.502 120.6 619.166 120.292C618.802 119.956 618.284 119.802 617.64 119.802C616.968 119.802 616.45 119.97 616.072 120.334C615.68 120.698 615.456 121.216 615.386 121.888H614.252C614.336 120.922 614.7 120.166 615.316 119.62C615.904 119.074 616.674 118.808 617.626 118.808ZM624.943 119.004H625.839V129H624.691V120.404C624.061 121.048 623.277 121.496 622.339 121.776V120.628C622.787 120.502 623.263 120.306 623.739 120.026C624.215 119.718 624.607 119.382 624.943 119.004ZM629.652 117.38C630.128 117.38 630.534 117.548 630.87 117.898C631.206 118.234 631.388 118.64 631.388 119.116C631.388 119.592 631.206 119.998 630.87 120.334C630.534 120.67 630.128 120.838 629.652 120.838C629.176 120.838 628.77 120.67 628.434 120.334C628.098 119.998 627.93 119.592 627.93 119.116C627.93 118.64 628.098 118.234 628.434 117.898C628.77 117.548 629.176 117.38 629.652 117.38ZM629.652 118.038C629.358 118.038 629.106 118.136 628.896 118.346C628.672 118.556 628.574 118.808 628.574 119.116C628.574 119.41 628.672 119.662 628.896 119.872C629.106 120.082 629.358 120.194 629.652 120.194C629.946 120.194 630.198 120.082 630.422 119.872C630.618 119.662 630.73 119.41 630.73 119.116C630.73 118.808 630.618 118.556 630.422 118.346C630.198 118.136 629.946 118.038 629.652 118.038ZM634.581 127.334C634.889 127.334 635.155 127.46 635.351 127.726C635.533 127.978 635.631 128.3 635.631 128.706C635.631 129.322 635.449 129.868 635.085 130.344C634.721 130.792 634.231 131.1 633.643 131.254V130.568C634.007 130.442 634.301 130.232 634.525 129.952C634.721 129.658 634.833 129.35 634.833 129.014C634.777 129.042 634.665 129.07 634.525 129.07C634.287 129.07 634.091 128.986 633.923 128.818C633.755 128.65 633.671 128.44 633.671 128.202C633.671 127.936 633.755 127.726 633.923 127.572C634.091 127.404 634.301 127.334 634.581 127.334ZM647.489 120.488H652.473V119.186C651.031 119.27 649.477 119.312 647.811 119.312L647.517 118.458C651.577 118.444 654.965 118.192 657.653 117.716L658.129 118.542C656.785 118.794 655.245 118.99 653.481 119.13V120.488H658.465V121.426H656.785V123.344H659.221V124.296H656.785V126.34H658.535V127.278H653.481V128.972H658.227V129.924H647.741V128.972H652.473V127.278H647.447V126.34H649.169V124.296H646.747V123.344H649.169V121.426H647.489V120.488ZM655.833 126.34V124.296H653.481V126.34H655.833ZM655.833 123.344V121.426H653.481V123.344H655.833ZM652.473 126.34V124.296H650.121V126.34H652.473ZM652.473 123.344V121.426H650.121V123.344H652.473ZM661.041 118.836H666.445C666.501 118.388 666.557 117.954 666.599 117.52L667.621 117.66C667.579 118.066 667.537 118.458 667.481 118.836H672.913V119.802H667.327C667.257 120.208 667.173 120.6 667.089 120.964H671.121V129.14H673.193V130.078H660.775V129.14H662.777V120.964H666.053C666.137 120.572 666.221 120.18 666.291 119.802H661.041V118.836ZM663.771 129.14H670.127V127.908H663.771V129.14ZM663.771 127.082H670.127V125.892H663.771V127.082ZM663.771 125.08H670.127V123.904H663.771V125.08ZM663.771 123.078H670.127V121.86H663.771V123.078ZM682.979 118.808C683.903 118.808 684.659 119.074 685.261 119.606C685.849 120.138 686.157 120.852 686.157 121.72C686.157 122.588 685.821 123.372 685.177 124.072C684.827 124.436 684.141 124.982 683.105 125.682C681.831 126.536 681.103 127.306 680.921 127.978H686.171V129H679.507C679.507 128.09 679.829 127.264 680.501 126.522C680.893 126.074 681.607 125.472 682.671 124.744C683.455 124.184 683.973 123.778 684.239 123.498C684.743 122.952 685.009 122.35 685.009 121.706C685.009 121.09 684.827 120.628 684.463 120.292C684.099 119.956 683.581 119.788 682.937 119.788C682.251 119.788 681.719 120.012 681.355 120.488C680.963 120.936 680.753 121.608 680.739 122.49H679.591C679.591 121.37 679.913 120.474 680.529 119.816C681.145 119.144 681.971 118.808 682.979 118.808ZM691.233 118.808C692.423 118.808 693.319 119.326 693.935 120.39C694.467 121.286 694.733 122.49 694.733 124.002C694.733 125.514 694.467 126.718 693.935 127.614C693.319 128.664 692.423 129.196 691.233 129.196C690.029 129.196 689.133 128.664 688.531 127.614C687.999 126.718 687.733 125.514 687.733 124.002C687.733 122.49 687.999 121.286 688.531 120.39C689.133 119.326 690.029 118.808 691.233 118.808ZM691.233 119.788C690.337 119.788 689.693 120.264 689.301 121.23C689.021 121.902 688.881 122.826 688.881 124.002C688.881 125.164 689.021 126.088 689.301 126.774C689.693 127.726 690.337 128.216 691.233 128.216C692.129 128.216 692.773 127.726 693.165 126.774C693.445 126.088 693.599 125.164 693.599 124.002C693.599 122.826 693.445 121.902 693.165 121.23C692.773 120.264 692.129 119.788 691.233 119.788ZM697.738 117.38C698.214 117.38 698.62 117.548 698.956 117.898C699.292 118.234 699.474 118.64 699.474 119.116C699.474 119.592 699.292 119.998 698.956 120.334C698.62 120.67 698.214 120.838 697.738 120.838C697.262 120.838 696.856 120.67 696.52 120.334C696.184 119.998 696.016 119.592 696.016 119.116C696.016 118.64 696.184 118.234 696.52 117.898C696.856 117.548 697.262 117.38 697.738 117.38ZM697.738 118.038C697.444 118.038 697.192 118.136 696.982 118.346C696.758 118.556 696.66 118.808 696.66 119.116C696.66 119.41 696.758 119.662 696.982 119.872C697.192 120.082 697.444 120.194 697.738 120.194C698.032 120.194 698.284 120.082 698.508 119.872C698.704 119.662 698.816 119.41 698.816 119.116C698.816 118.808 698.704 118.556 698.508 118.346C698.284 118.136 698.032 118.038 697.738 118.038Z" fill="#1D1C23"/>
<path d="M1018.29 121.118H1022.84V121.916C1022.11 125.01 1020.68 127.362 1018.52 128.958L1017.88 128.132C1019.8 126.718 1021.11 124.702 1021.84 122.098H1018.29V121.118ZM1029.12 119.774L1029.93 120.376C1028.84 121.72 1027.69 122.868 1026.5 123.792C1027.6 125.57 1029.04 127.04 1030.8 128.216L1030.19 129.126C1027.75 127.25 1026 125.094 1024.96 122.658V129.028C1024.96 129.896 1024.54 130.344 1023.72 130.344H1021.88L1021.67 129.35C1022.26 129.392 1022.84 129.42 1023.37 129.42C1023.73 129.42 1023.93 129.196 1023.93 128.776V117.506H1024.96V120.474C1025.26 121.37 1025.62 122.21 1026.04 122.994C1027.18 122.056 1028.2 120.978 1029.12 119.774ZM1032.69 118.192H1044V119.172H1038.8V124.464H1044.54V125.43H1038.8V130.386H1037.76V125.43H1032.13V124.464H1037.76V119.172H1032.69V118.192ZM1034.4 120.068C1034.93 121.048 1035.44 122.112 1035.91 123.274L1034.97 123.736C1034.5 122.532 1033.99 121.468 1033.46 120.53L1034.4 120.068ZM1042.34 119.998L1043.26 120.432C1042.84 121.538 1042.28 122.616 1041.6 123.68L1040.7 123.218C1041.39 122.126 1041.93 121.062 1042.34 119.998ZM1049.67 118.808C1050.6 118.808 1051.35 119.074 1051.96 119.606C1052.54 120.138 1052.85 120.852 1052.85 121.72C1052.85 122.588 1052.52 123.372 1051.87 124.072C1051.52 124.436 1050.84 124.982 1049.8 125.682C1048.53 126.536 1047.8 127.306 1047.62 127.978H1052.87V129H1046.2C1046.2 128.09 1046.52 127.264 1047.2 126.522C1047.59 126.074 1048.3 125.472 1049.37 124.744C1050.15 124.184 1050.67 123.778 1050.93 123.498C1051.44 122.952 1051.7 122.35 1051.7 121.706C1051.7 121.09 1051.52 120.628 1051.16 120.292C1050.79 119.956 1050.28 119.788 1049.63 119.788C1048.95 119.788 1048.41 120.012 1048.05 120.488C1047.66 120.936 1047.45 121.608 1047.43 122.49H1046.29C1046.29 121.37 1046.61 120.474 1047.22 119.816C1047.84 119.144 1048.67 118.808 1049.67 118.808ZM1058.03 118.808C1058.98 118.808 1059.76 119.046 1060.35 119.536C1060.92 120.026 1061.22 120.684 1061.22 121.524C1061.22 122.644 1060.67 123.4 1059.58 123.764C1060.17 123.946 1060.62 124.226 1060.92 124.618C1061.26 125.01 1061.43 125.5 1061.43 126.088C1061.43 126.998 1061.11 127.74 1060.48 128.314C1059.83 128.902 1058.99 129.196 1057.96 129.196C1057 129.196 1056.23 128.944 1055.63 128.468C1054.92 127.88 1054.53 127.026 1054.44 125.906H1055.6C1055.63 126.69 1055.9 127.292 1056.39 127.698C1056.81 128.034 1057.33 128.216 1057.96 128.216C1058.67 128.216 1059.24 128.006 1059.68 127.6C1060.07 127.208 1060.28 126.718 1060.28 126.13C1060.28 125.528 1060.08 125.066 1059.69 124.73C1059.3 124.394 1058.77 124.24 1058.07 124.24H1057.26V123.344H1058.03C1058.7 123.344 1059.2 123.19 1059.55 122.896C1059.9 122.588 1060.08 122.154 1060.08 121.594C1060.08 121.034 1059.9 120.6 1059.57 120.292C1059.2 119.956 1058.68 119.802 1058.04 119.802C1057.37 119.802 1056.85 119.97 1056.47 120.334C1056.08 120.698 1055.86 121.216 1055.79 121.888H1054.65C1054.74 120.922 1055.1 120.166 1055.72 119.62C1056.3 119.074 1057.07 118.808 1058.03 118.808ZM1064.43 117.38C1064.91 117.38 1065.32 117.548 1065.65 117.898C1065.99 118.234 1066.17 118.64 1066.17 119.116C1066.17 119.592 1065.99 119.998 1065.65 120.334C1065.32 120.67 1064.91 120.838 1064.43 120.838C1063.96 120.838 1063.55 120.67 1063.22 120.334C1062.88 119.998 1062.71 119.592 1062.71 119.116C1062.71 118.64 1062.88 118.234 1063.22 117.898C1063.55 117.548 1063.96 117.38 1064.43 117.38ZM1064.43 118.038C1064.14 118.038 1063.89 118.136 1063.68 118.346C1063.45 118.556 1063.36 118.808 1063.36 119.116C1063.36 119.41 1063.45 119.662 1063.68 119.872C1063.89 120.082 1064.14 120.194 1064.43 120.194C1064.73 120.194 1064.98 120.082 1065.2 119.872C1065.4 119.662 1065.51 119.41 1065.51 119.116C1065.51 118.808 1065.4 118.556 1065.2 118.346C1064.98 118.136 1064.73 118.038 1064.43 118.038ZM1069.18 127.04C1069.71 127.418 1070.26 127.88 1070.79 128.44C1071.25 128.916 1071.66 129.406 1071.99 129.882L1071.29 130.47C1070.96 129.994 1070.55 129.518 1070.1 129.042C1069.59 128.482 1069.07 128.02 1068.55 127.628L1069.18 127.04ZM1082.27 120.488H1087.25V119.186C1085.81 119.27 1084.26 119.312 1082.59 119.312L1082.3 118.458C1086.36 118.444 1089.75 118.192 1092.43 117.716L1092.91 118.542C1091.57 118.794 1090.03 118.99 1088.26 119.13V120.488H1093.25V121.426H1091.57V123.344H1094V124.296H1091.57V126.34H1093.32V127.278H1088.26V128.972H1093.01V129.924H1082.52V128.972H1087.25V127.278H1082.23V126.34H1083.95V124.296H1081.53V123.344H1083.95V121.426H1082.27V120.488ZM1090.61 126.34V124.296H1088.26V126.34H1090.61ZM1090.61 123.344V121.426H1088.26V123.344H1090.61ZM1087.25 126.34V124.296H1084.9V126.34H1087.25ZM1087.25 123.344V121.426H1084.9V123.344H1087.25ZM1095.82 118.836H1101.23C1101.28 118.388 1101.34 117.954 1101.38 117.52L1102.4 117.66C1102.36 118.066 1102.32 118.458 1102.26 118.836H1107.69V119.802H1102.11C1102.04 120.208 1101.95 120.6 1101.87 120.964H1105.9V129.14H1107.97V130.078H1095.56V129.14H1097.56V120.964H1100.83C1100.92 120.572 1101 120.18 1101.07 119.802H1095.82V118.836ZM1098.55 129.14H1104.91V127.908H1098.55V129.14ZM1098.55 127.082H1104.91V125.892H1098.55V127.082ZM1098.55 125.08H1104.91V123.904H1098.55V125.08ZM1098.55 123.078H1104.91V121.86H1098.55V123.078ZM1111.98 119.004H1112.87V129H1111.73V120.404C1111.1 121.048 1110.31 121.496 1109.37 121.776V120.628C1109.82 120.502 1110.3 120.306 1110.77 120.026C1111.25 119.718 1111.64 119.382 1111.98 119.004ZM1115.85 119.004H1121.66V120.026H1116.78L1116.45 123.372H1116.5C1116.78 123.036 1117.15 122.784 1117.58 122.616C1117.97 122.448 1118.39 122.378 1118.86 122.378C1119.81 122.378 1120.58 122.672 1121.17 123.274C1121.75 123.89 1122.06 124.73 1122.06 125.808C1122.06 126.816 1121.7 127.642 1120.98 128.286C1120.31 128.888 1119.47 129.196 1118.49 129.196C1117.61 129.196 1116.85 128.958 1116.24 128.482C1115.54 127.95 1115.16 127.222 1115.09 126.312H1116.22C1116.28 126.942 1116.53 127.432 1116.98 127.768C1117.37 128.062 1117.89 128.216 1118.51 128.216C1119.21 128.216 1119.78 127.992 1120.24 127.544C1120.69 127.096 1120.93 126.522 1120.93 125.822C1120.93 125.024 1120.7 124.408 1120.28 123.974C1119.88 123.526 1119.3 123.316 1118.58 123.316C1118.1 123.316 1117.68 123.414 1117.3 123.624C1116.91 123.82 1116.6 124.128 1116.41 124.52H1115.31L1115.85 119.004ZM1125.08 117.38C1125.56 117.38 1125.96 117.548 1126.3 117.898C1126.64 118.234 1126.82 118.64 1126.82 119.116C1126.82 119.592 1126.64 119.998 1126.3 120.334C1125.96 120.67 1125.56 120.838 1125.08 120.838C1124.61 120.838 1124.2 120.67 1123.86 120.334C1123.53 119.998 1123.36 119.592 1123.36 119.116C1123.36 118.64 1123.53 118.234 1123.86 117.898C1124.2 117.548 1124.61 117.38 1125.08 117.38ZM1125.08 118.038C1124.79 118.038 1124.54 118.136 1124.33 118.346C1124.1 118.556 1124 118.808 1124 119.116C1124 119.41 1124.1 119.662 1124.33 119.872C1124.54 120.082 1124.79 120.194 1125.08 120.194C1125.38 120.194 1125.63 120.082 1125.85 119.872C1126.05 119.662 1126.16 119.41 1126.16 119.116C1126.16 118.808 1126.05 118.556 1125.85 118.346C1125.63 118.136 1125.38 118.038 1125.08 118.038Z" fill="#1D1C23"/>
<line y1="149.5" x2="1384" y2="149.5" stroke="#DFE1E2"/>
</svg>
