<svg width="24" height="24" viewBox="0 0 24 24" fill="none" xmlns="http://www.w3.org/2000/svg">
<path d="M18.5743 13.7114C19.0732 13.7114 19.4723 13.2873 19.4723 12.8134C19.4723 12.3145 19.0732 11.9155 18.5743 11.9155C18.0755 11.9155 17.6764 12.3145 17.6764 12.8134C17.6764 13.3123 18.0755 13.7114 18.5743 13.7114ZM14.1487 13.7114C14.6475 13.7114 15.0466 13.2873 15.0466 12.8134C15.0466 12.3145 14.6475 11.9155 14.1487 11.9155C13.6498 11.9155 13.2507 12.3145 13.2507 12.8134C13.2507 13.3123 13.6498 13.7114 14.1487 13.7114ZM20.716 18.7516C20.5932 18.8253 20.5195 18.9482 20.5441 19.1202C20.5441 19.1693 20.5441 19.2185 20.5686 19.2676C20.6669 19.6854 20.8633 20.349 20.8633 20.3736C20.8633 20.4473 20.8879 20.4964 20.8879 20.5456C20.8879 20.6685 20.7897 20.7668 20.6669 20.7668C20.6177 20.7668 20.5932 20.7422 20.5441 20.7176L19.0951 19.882C18.9968 19.8329 18.874 19.7837 18.7512 19.7837C18.6776 19.7837 18.6039 19.7837 18.5548 19.8083C17.8671 20.0049 17.1549 20.1032 16.3936 20.1032C12.7342 20.1032 9.78717 17.6456 9.78717 14.5983C9.78717 11.5509 12.7342 9.09329 16.3936 9.09329C20.0529 9.09329 23 11.5509 23 14.5983C23 16.2448 22.1158 17.7439 20.716 18.7516ZM16.6727 8.09757C16.58 8.09473 16.487 8.09329 16.3936 8.09329C12.2189 8.09329 8.78717 10.9536 8.78717 14.5983C8.78717 15.1519 8.86635 15.6874 9.01528 16.1975H8.92613C8.03998 16.1975 7.15383 16.0503 6.34152 15.8296C6.26768 15.805 6.19383 15.805 6.11999 15.805C5.97229 15.805 5.8246 15.8541 5.70152 15.9277L3.95384 16.9334C3.90461 16.958 3.85537 16.9825 3.80614 16.9825C3.65845 16.9825 3.53538 16.8599 3.53538 16.7127C3.53538 16.6391 3.55999 16.59 3.58461 16.5164C3.60922 16.4919 3.83076 15.6824 3.95384 15.1918C3.95384 15.1427 3.97845 15.0691 3.97845 15.0201C3.97845 14.8238 3.87999 14.6766 3.75691 14.5785C2.05846 13.3765 1 11.5858 1 9.59876C1 5.94369 4.56922 3 8.95075 3C12.7147 3 15.8792 5.16856 16.6727 8.09757ZM11.5189 8.51604C12.0917 8.51604 12.5452 8.03871 12.5452 7.4898C12.5452 6.91701 12.0917 6.46356 11.5189 6.46356C10.9461 6.46356 10.4927 6.91701 10.4927 7.4898C10.4927 8.06258 10.9461 8.51604 11.5189 8.51604ZM6.25947 8.51604C6.83226 8.51604 7.28571 8.03871 7.28571 7.4898C7.28571 6.91701 6.83226 6.46356 6.25947 6.46356C5.68669 6.46356 5.23323 6.91701 5.23323 7.4898C5.23323 8.06258 5.68669 8.51604 6.25947 8.51604Z" fill="#A3A8AB"/>
</svg>
